<svg width="24" height="26" viewBox="0 0 24 26" fill="none" xmlns="http://www.w3.org/2000/svg">
<path d="M6.35294 11.494C5.49459 11.494 4.8 12.1672 4.8 12.9992C4.8 13.8311 5.49459 14.5043 6.35294 14.5043C7.21129 14.5043 7.90588 13.8311 7.90588 12.9992C7.90588 12.1672 7.21129 11.494 6.35294 11.494ZM6.35294 13.6833C5.96329 13.6833 5.64706 13.3768 5.64706 12.9992C5.64706 12.6215 5.96329 12.315 6.35294 12.315C6.74259 12.315 7.05882 12.6215 7.05882 12.9992C7.05882 13.3768 6.74259 13.6833 6.35294 13.6833ZM17.6471 11.494C16.7887 11.494 16.0941 12.1672 16.0941 12.9992C16.0941 13.8311 16.7887 14.5043 17.6471 14.5043C18.5054 14.5043 19.2 13.8311 19.2 12.9992C19.2 12.1672 18.5054 11.494 17.6471 11.494ZM17.6471 13.6833C17.2574 13.6833 16.9412 13.3768 16.9412 12.9992C16.9412 12.6215 17.2574 12.315 17.6471 12.315C18.0367 12.315 18.3529 12.6215 18.3529 12.9992C18.3529 13.3768 18.0367 13.6833 17.6471 13.6833ZM24 2.73667C24 1.22466 22.8692 0 21.4744 0H2.52565C1.13082 0 0 1.22603 0 2.73667C0 2.73667 0 7.86518 0 12.9992C0 18.1331 0 23.2617 0 23.2617C0 24.7737 1.13082 25.9983 2.52565 25.9983H21.4729C22.8678 25.9983 23.9986 24.7737 23.9986 23.2617C23.9986 23.2617 23.9986 18.0661 23.9986 12.9992C23.9986 7.93222 24 2.73667 24 2.73667ZM23.1529 12.9992C23.1529 17.6925 23.1529 23.2617 23.1529 23.2617C23.1529 24.5342 22.2042 25.1773 21.6 25.1773H2.54118C1.90306 25.1773 0.847059 24.6615 0.847059 23.2617C0.847059 23.2617 0.847059 18.0634 0.847059 12.9992C0.847059 7.93496 0.847059 2.73667 0.847059 2.73667C0.847059 1.33686 1.90306 0.821 2.54118 0.821H21.6C22.2042 0.821 23.1529 1.46412 23.1529 2.73667C23.1529 2.73667 23.1529 8.30715 23.1529 12.9992ZM12 11.494C11.1416 11.494 10.4471 12.1672 10.4471 12.9992C10.4471 13.8311 11.1416 14.5043 12 14.5043C12.8584 14.5043 13.5529 13.8311 13.5529 12.9992C13.5529 12.1672 12.8584 11.494 12 11.494ZM12 13.6833C11.6104 13.6833 11.2941 13.3768 11.2941 12.9992C11.2941 12.6215 11.6104 12.315 12 12.315C12.3896 12.315 12.7059 12.6215 12.7059 12.9992C12.7059 13.3768 12.3896 13.6833 12 13.6833Z" fill="black"/>
</svg>
