<svg width="25" height="26" viewBox="0 0 25 26" fill="none" xmlns="http://www.w3.org/2000/svg">
<path d="M24.8071 18.8846L24.7803 18.0855C24.7309 18.0964 24.6786 18.1019 24.6292 18.1019C24.2015 18.1019 23.8641 17.7119 23.5069 17.3C23.1314 16.8663 22.7432 16.4188 22.2378 16.4188C21.731 16.4188 21.3442 16.8663 20.9687 17.3C20.6116 17.7119 20.2742 18.1019 19.8464 18.1019C19.5401 18.1019 19.279 17.9007 19.0249 17.6339V15.5663C19.2705 15.7565 19.5359 15.8742 19.8464 15.8742C20.3532 15.8742 20.74 15.5636 21.1156 15.1298C21.4727 14.718 21.8101 14.328 22.2378 14.328C22.6656 14.328 23.003 14.718 23.3601 15.1298C23.7356 15.5636 24.1238 15.8742 24.6292 15.8742C24.6899 15.8742 24.752 15.8674 24.8127 15.8537L24.7817 14.9369C24.7323 14.9478 24.68 14.9533 24.6306 14.9533C24.2029 14.9533 23.8655 14.5633 23.5084 14.1515C23.1328 13.7177 22.7446 13.2702 22.2393 13.2702C21.7325 13.2702 21.3457 13.7177 20.9701 14.1515C20.613 14.5633 20.2756 14.9533 19.8479 14.9533C19.5415 14.9533 19.2804 14.7522 19.0263 14.4853V13.4085V12.5874H18.1793H13.2355V11.0015C13.4261 11.152 13.6068 11.3587 13.7932 11.5735C14.1687 12.0059 14.5569 12.3179 15.0623 12.3179C15.5691 12.3179 15.9559 12.0073 16.3314 11.5735C16.6885 11.1616 17.0259 10.7716 17.4536 10.7716C17.8814 10.7716 18.2188 11.1616 18.5759 11.5735C18.9514 12.0059 19.3397 12.3179 19.845 12.3179C20.3518 12.3179 20.7386 12.0073 21.1141 11.5735C21.4713 11.1616 21.8087 10.7716 22.2364 10.7716C22.6642 10.7716 23.0016 11.1616 23.3587 11.5735C23.7342 12.0073 24.1224 12.3179 24.6278 12.3179C24.6885 12.3179 24.7506 12.311 24.8113 12.2974L24.7803 11.3806C24.7309 11.3915 24.6786 11.397 24.6292 11.397C24.2015 11.397 23.8641 11.007 23.5069 10.5951C23.1314 10.1614 22.7432 9.71391 22.2378 9.71391C21.731 9.71391 21.3442 10.1614 20.9687 10.5951C20.6116 11.007 20.2742 11.397 19.8464 11.397C19.4187 11.397 19.0813 11.007 18.7242 10.5951C18.3487 10.1614 17.9604 9.71391 17.4551 9.71391C16.9483 9.71391 16.5615 10.1614 16.186 10.5951C15.8288 11.007 15.4914 11.397 15.0637 11.397C14.6359 11.397 14.2985 11.007 13.9414 10.5951C13.7183 10.3379 13.4911 10.0779 13.237 9.90685V7.99116C13.4275 8.14168 13.6082 8.3483 13.7946 8.56313C14.1701 8.99553 14.5583 9.30751 15.0637 9.30751C15.5705 9.30751 15.9573 8.99689 16.3328 8.56313C16.6899 8.15126 17.0273 7.76128 17.4551 7.76128C17.8828 7.76128 18.2202 8.15126 18.5773 8.56313C18.9529 8.99553 19.3411 9.30751 19.8464 9.30751C20.3532 9.30751 20.74 8.99689 21.1156 8.56313C21.4727 8.15126 21.8101 7.76128 22.2378 7.76128C22.6656 7.76128 23.003 8.15126 23.3601 8.56313C23.7356 8.99689 24.1238 9.30751 24.6292 9.30751C24.6899 9.30751 24.752 9.30067 24.8127 9.28699L24.7817 8.37019C24.7323 8.38114 24.68 8.38661 24.6306 8.38661C24.2029 8.38661 23.8655 7.99663 23.5084 7.58476C23.1328 7.15099 22.7446 6.70354 22.2393 6.70354C21.7325 6.70354 21.3457 7.15099 20.9701 7.58476C20.613 7.99663 20.2756 8.38661 19.8479 8.38661C19.4201 8.38661 19.0827 7.99663 18.7256 7.58476C18.3501 7.15099 17.9619 6.70354 17.4565 6.70354C16.9497 6.70354 16.5629 7.15099 16.1874 7.58476C15.8302 7.99663 15.4928 8.38661 15.0651 8.38661C14.6373 8.38661 14.3 7.99663 13.9428 7.58476C13.7198 7.32751 13.4925 7.06752 13.2384 6.89648V6.29441H12.3914H7.44765V4.48134C7.58599 4.39377 7.7314 4.34177 7.88809 4.3404C8.31583 4.3404 8.65322 4.73038 9.01038 5.14226C9.38589 5.57465 9.7741 5.88664 10.2795 5.88664C10.7863 5.88664 11.1731 5.57602 11.5486 5.14226C11.9057 4.73038 12.2431 4.3404 12.6709 4.3404C13.0986 4.3404 13.436 4.73038 13.7932 5.14226C14.1687 5.57465 14.5569 5.88664 15.0623 5.88664C15.5691 5.88664 15.9559 5.57602 16.3314 5.14226C16.6885 4.73038 17.0259 4.3404 17.4536 4.3404C17.8814 4.3404 18.2188 4.73038 18.5759 5.14226C18.9514 5.57465 19.3397 5.88664 19.845 5.88664C20.3518 5.88664 20.7386 5.57602 21.1141 5.14226C21.4713 4.73038 21.8087 4.3404 22.2364 4.3404C22.6642 4.3404 23.0016 4.73038 23.3587 5.14226C23.7342 5.57602 24.1224 5.88664 24.6278 5.88664C24.6885 5.88664 24.7506 5.8798 24.8113 5.86611L24.7803 4.94932C24.7309 4.96027 24.6786 4.96574 24.6292 4.96574C24.2015 4.96574 23.8641 4.57576 23.5069 4.16389C23.1314 3.73012 22.7432 3.28267 22.2378 3.28267C21.731 3.28267 21.3442 3.73012 20.9687 4.16389C20.6116 4.57576 20.2742 4.96574 19.8464 4.96574C19.4187 4.96574 19.0813 4.57576 18.7242 4.16389C18.3487 3.73012 17.9604 3.28267 17.4551 3.28267C16.9483 3.28267 16.5615 3.73012 16.186 4.16389C15.8288 4.57576 15.4914 4.96574 15.0637 4.96574C14.6359 4.96574 14.2985 4.57576 13.9414 4.16389C13.5645 3.73149 13.1777 3.28404 12.6709 3.28404C12.1641 3.28404 11.7773 3.73149 11.4018 4.16525C11.0446 4.57713 10.7072 4.96711 10.2795 4.96711C9.85174 4.96711 9.51435 4.57713 9.1572 4.16525C8.78169 3.73149 8.39348 3.28404 7.88809 3.28404C7.72998 3.28404 7.58599 3.33056 7.44765 3.40308V1.07963C7.49423 1.06594 7.54647 1.05637 7.60576 1.05637C8.0335 1.05637 8.65322 1.44634 9.01038 1.85822C9.38589 2.29062 9.7741 2.6026 10.2795 2.6026C10.7863 2.6026 11.1731 2.29198 11.5486 1.85822C11.9057 1.44634 12.2431 1.05637 12.6709 1.05637C13.0986 1.05637 13.436 1.44634 13.7932 1.85822C14.1687 2.29062 14.5569 2.6026 15.0623 2.6026C15.5691 2.6026 15.9559 2.29198 16.3314 1.85822C16.6885 1.44634 17.0259 1.05637 17.4536 1.05637C17.8814 1.05637 18.2188 1.44634 18.5759 1.85822C18.9514 2.29062 19.3397 2.6026 19.845 2.6026C20.3518 2.6026 20.7386 2.29198 21.1141 1.85822C21.4713 1.44634 21.8087 1.05637 22.2364 1.05637C22.6642 1.05637 23.0016 1.44634 23.3587 1.85822C23.7342 2.29198 24.1224 2.6026 24.6278 2.6026C24.6885 2.6026 24.7506 2.59576 24.8113 2.58207L24.7803 1.66528C24.7309 1.67623 24.6786 1.6817 24.6292 1.6817C24.2015 1.6817 23.8641 1.29172 23.5069 0.879848C23.1314 0.44745 22.7432 0 22.2364 0C21.7296 0 21.3428 0.44745 20.9673 0.881217C20.6102 1.29309 20.2728 1.68307 19.845 1.68307C19.4173 1.68307 19.0799 1.29309 18.7228 0.881217C18.3472 0.44745 17.9604 0 17.4536 0C16.9469 0 16.5601 0.44745 16.1845 0.881217C15.8274 1.29309 15.49 1.68307 15.0623 1.68307C14.6345 1.68307 14.2971 1.29309 13.94 0.881217C13.5645 0.44745 13.1777 0 12.6709 0C12.1641 0 11.7773 0.44745 11.4018 0.881217C11.0446 1.29309 10.7072 1.68307 10.2795 1.68307C9.85174 1.68307 9.51435 1.29309 9.1572 0.881217C8.78169 0.44745 8.11114 0 7.60576 0C7.54788 0 7.49565 0.00684174 7.44765 0.0177885C7.44765 0.00821009 7.44765 0.00136835 7.44765 0.00136835C4.31936 0.00136835 3.5147 0.00136835 3.33824 0.00136835C1.9435 0.00136835 0.812744 1.22604 0.812744 2.73807C0.812744 2.73807 0.812744 4.17894 0.812744 6.29577V7.11678C0.812744 8.85185 0.812744 10.9263 0.812744 13.0007C0.812744 15.0751 0.812744 17.1495 0.812744 18.8846V19.7056C0.812744 21.8224 0.812744 23.2633 0.812744 23.2633C0.812744 24.7753 1.9435 26 3.33824 26H22.2844C23.6792 26 24.8099 24.7753 24.8099 23.2633C24.8099 23.0389 24.8099 22.1933 24.8099 19.4319C24.8099 19.343 24.8099 19.2513 24.8099 19.1583V18.8846H24.8071ZM6.60064 25.179H3.35377C2.71569 25.179 1.65975 24.6631 1.65975 23.2633C1.65975 23.2633 1.65975 21.8156 1.65975 19.7056H6.60064V25.179ZM6.60064 18.8846H1.65975C1.65975 17.2549 1.65975 15.3351 1.65975 13.4112H6.60064V18.8846ZM6.60064 12.5902H1.65975C1.65975 10.6663 1.65975 8.74649 1.65975 7.11678H6.60064V12.5902ZM6.60064 6.29577H1.65975C1.65975 4.18578 1.65975 2.73807 1.65975 2.73807C1.65975 1.33825 2.71569 0.822378 3.35377 0.822378C3.51611 0.822378 4.19655 0.822378 6.60064 0.822378V6.29577ZM12.3885 25.179H7.44765V19.7056H12.3885V25.179ZM12.3885 18.8846H7.44765V13.4112H12.3885V18.8846ZM12.3885 12.5902H7.44765V7.11678H12.3885V12.5902ZM18.1764 25.179H13.2355V19.7056H18.1764V25.179ZM18.1764 18.8846H13.2355V13.4112H18.1764V18.8846ZM19.0234 18.7149C19.111 18.7833 19.2027 18.8381 19.2973 18.8846H19.0234V18.7149ZM23.9643 23.2633C23.9643 24.5359 23.0157 25.179 22.4115 25.179H19.0234V19.7056H23.9643C23.9643 22.5258 23.9643 23.1484 23.9643 23.2633ZM20.4012 18.8846C20.6582 18.7532 20.8897 18.5384 21.1156 18.2784C21.4727 17.8665 21.8101 17.4766 22.2378 17.4766C22.6656 17.4766 23.003 17.8665 23.3601 18.2784C23.586 18.5384 23.8161 18.7532 24.0744 18.8846H20.4012Z" fill="black"/>
</svg>
