<svg width="26" height="26" viewBox="0 0 26 26" fill="none" xmlns="http://www.w3.org/2000/svg">
<path d="M11.1499 7.38808L11.1521 7.39508C11.4573 8.36722 11.2167 9.4141 10.5219 10.1478L9.13637 11.9895C10.3811 14.1578 11.8233 15.5999 14.0107 16.8609L15.9146 15.4237C16.259 15.0985 16.7023 14.897 17.1317 14.8008C17.5929 14.6974 18.1234 14.696 18.6296 14.8674C19.7784 15.2466 20.9935 15.4405 22.2347 15.4405C23.7603 15.4405 24.9999 16.6801 25 18.2057V18.2058V22.2347C25 23.7603 23.7603 25 22.2347 25C10.5249 25 1 15.4752 1 3.76533C1 2.23966 2.23965 1 3.76532 1H7.80552C9.33118 1 10.5708 2.23965 10.5708 3.76539L11.1499 7.38808ZM11.1499 7.38808L11.1476 7.38111M11.1499 7.38808L11.1476 7.38111M11.1476 7.38111C10.7655 6.22384 10.5708 5.00789 10.5708 3.76544L11.1476 7.38111Z" stroke="#f00" stroke-width="2"/>
</svg>
