<svg width="16" height="16" viewBox="0 0 16 16" fill="none" xmlns="http://www.w3.org/2000/svg">
<g opacity="0.3">
<circle cx="8" cy="8" r="7.5" stroke="black"/>
<path d="M8.84058 12H7.17391V6.69809H8.84058V12ZM7 4.7894C7 4.55376 7.09662 4.36524 7.28986 4.22386C7.49275 4.07462 7.74396 4 8.04348 4C8.30435 4 8.52657 4.07462 8.71014 4.22386C8.90338 4.3731 9 4.56161 9 4.7894C9 5.04075 8.90338 5.24497 8.71014 5.40206C8.52657 5.55916 8.30435 5.6377 8.04348 5.6377C7.74396 5.6377 7.49275 5.55916 7.28986 5.40206C7.09662 5.24497 7 5.04075 7 4.7894Z" fill="#3C3C3C"/>
</g>
</svg>
