<svg width="25" height="26" viewBox="0 0 25 26" fill="none" xmlns="http://www.w3.org/2000/svg">
<path d="M22.2881 0H3.3383C1.94339 0 0.8125 1.22603 0.8125 2.73667C0.8125 2.73667 0.8125 7.86518 0.8125 12.9992C0.8125 18.1331 0.8125 23.2617 0.8125 23.2617C0.8125 24.7737 1.94339 25.9983 3.3383 25.9983H22.2867C23.6816 25.9983 24.8125 24.7737 24.8125 23.2617C24.8125 23.2617 24.8125 18.0661 24.8125 12.9992C24.8125 7.93222 24.8125 2.73667 24.8125 2.73667C24.8139 1.22603 23.683 0 22.2881 0ZM8.15411 25.1773H3.35383C2.71567 25.1773 1.65961 24.6615 1.65961 23.2617C1.65961 23.2617 1.65961 18.0634 1.65961 12.9992C1.65961 7.93633 1.65961 2.73667 1.65961 2.73667C1.65961 1.33686 2.71567 0.821 3.35383 0.821H8.15411V25.1773ZM16.6252 25.1773H9.00122V13.4097H16.6252V25.1773ZM16.6252 12.5887H9.00122V0.821H16.6252V12.5887ZM23.9668 12.9992C23.9668 17.6925 23.9668 23.2617 23.9668 23.2617C23.9668 24.5342 23.018 25.1773 22.4138 25.1773H17.4723V0.821H22.4138C23.018 0.821 23.9668 1.46412 23.9668 2.73667C23.9668 2.73667 23.9668 8.30578 23.9668 12.9992Z" fill="black"/>
</svg>
