<svg width="24" height="26" viewBox="0 0 24 26" fill="none" xmlns="http://www.w3.org/2000/svg">
<path d="M24 3.6945V2.8735H20.1882V0H19.3412V2.8735H12.4235V0H11.5765V2.8735H4.65882V0H3.81176V2.8735H0V3.6945H3.81176V8.07316H0V8.89416H3.81176V10.2625C1.944 10.2625 0.458824 10.2625 0 10.2625C0 10.2625 0 11.1984 0 12.9992C0 18.0661 0 23.2617 0 23.2617C0 24.7737 1.13082 25.9983 2.52565 25.9983H21.4729C22.8678 25.9983 23.9986 24.7737 23.9986 23.2617C23.9986 23.0509 23.9986 22.1697 23.9986 19.0198L23.9915 19.0157C23.9012 16.1395 22.4245 13.604 20.1868 12.0126V8.89416H23.9986V8.07316H20.1868V3.6945H24ZM12.4235 3.6945H19.3412V8.07316H12.4235V3.6945ZM12.4235 8.89416H19.3412V11.4762C18.048 10.751 16.5586 10.3159 14.9689 10.2693L14.9647 10.2625C14.9647 10.2625 13.9384 10.2625 12.4235 10.2625V8.89416ZM4.65882 3.6945H11.5765V8.07316H4.65882V3.6945ZM4.65882 8.89416H11.5765V10.2625C9.53788 10.2625 6.91059 10.2625 4.65882 10.2625V8.89416ZM23.1529 23.2617C23.1529 24.6615 22.0969 25.1773 21.4588 25.1773H2.4C1.79576 25.1773 0.847059 24.5342 0.847059 23.2617C0.847059 23.2617 0.847059 17.6925 0.847059 12.9992C0.847059 12.0714 0.847059 11.0835 0.847059 11.0835C2.30118 11.0835 13.1096 11.0835 15.0791 11.0835C16.5416 14.414 16.1619 17.6871 15.5294 19.5672C19.2424 17.8047 21.624 18.337 23.1529 18.9336C23.1529 22.6555 23.1529 23.1987 23.1529 23.2617ZM23.1529 18.1988C22.0376 17.7076 19.7944 17.0891 16.6588 18.3357C17.1882 16.7634 17.0555 14.0405 15.8118 11.0835C19.4414 11.7389 22.848 14.5303 23.1529 18.1988Z" fill="black"/>
</svg>
