<svg width="24" height="22" viewBox="0 0 24 22" fill="none" xmlns="http://www.w3.org/2000/svg">
<path d="M0.414193 10.6829L6.28336 13.7468C6.51037 13.8641 6.77838 13.8557 6.99538 13.7227L12.2195 10.5415L9.05744 13.4765C8.89644 13.6263 8.80443 13.84 8.80443 14.0652V21.2143C8.80443 21.9684 9.72346 22.2858 10.1545 21.6867L12.6915 18.1535L18.9657 21.8962C19.4057 22.1612 19.9698 21.8951 20.0718 21.3682L23.9849 0.942445C24.1019 0.328624 23.5189 -0.17207 22.9768 0.0562799L0.476195 9.24788C-0.127822 9.49509 -0.166823 10.3802 0.414193 10.6829ZM22.2448 2.04229L18.8057 19.9929L12.8605 16.4461C12.5365 16.2524 12.1195 16.3383 11.8895 16.6567L10.3045 18.8637V14.4182L18.8557 6.48255C19.5327 5.85511 18.7547 4.73955 17.9817 5.2151L6.59137 12.1515L2.59926 10.0681L22.2448 2.04229Z" fill="black"/>
</svg>
