<svg width="35" height="43" viewBox="0 0 35 43" fill="none" xmlns="http://www.w3.org/2000/svg">
<path fill-rule="evenodd" clip-rule="evenodd" d="M26.8231 0.805857C26.3106 0.289492 25.6124 -0.0027833 24.8812 2.00272e-05H24.8846V1.50002L24.876 4.47035e-05L24.8812 2.00272e-05H5.19231C2.30281 2.00272e-05 0 2.37251 0 5.25002V37.75C0 40.6275 2.30281 43 5.19231 43H29.8077C32.6972 43 35 40.6275 35 37.75V10.2531V10.25H33.5L35 10.2587L35 10.2531C35.0027 9.53132 34.7232 8.83375 34.2163 8.31455L34.2119 8.31011L26.8273 0.810105L26.8231 0.805857ZM22 3.00002V3.00053V3.01473V3.02895V3.04322V3.05751V3.07183V3.08619V3.10057V3.11499V3.12943V3.14391V3.15841V3.17295V3.18751V3.2021V3.21672V3.23137V3.24605V3.26075V3.27549V3.29024V3.30503V3.31984V3.33468V3.34955V3.36444V3.37935V3.3943V3.40926V3.42426V3.43927V3.45431V3.46938V3.48447V3.49958V3.51471V3.52987V3.54505V3.56026V3.57548V3.59073V3.606V3.62129V3.6366V3.65193V3.66729V3.68266V3.69806V3.71347V3.7289V3.74436V3.75983V3.77532V3.79083V3.80636V3.8219V3.83747V3.85305V3.86865V3.88426V3.89989V3.91554V3.93121V3.94689V3.96258V3.97829V3.99402V4.00976V4.02552V4.04129V4.05708V4.07288V4.08869V4.10451V4.12035V4.1362V4.15207V4.16795V4.18383V4.19973V4.21565V4.23157V4.2475V4.26345V4.2794V4.29537V4.31135V4.32733V4.34333V4.35933V4.37534V4.39136V4.40739V4.42343V4.43948V4.45553V4.47159V4.48766V4.50373V4.51982V4.5359V4.552V4.5681V4.5842V4.60031V4.61643V4.63255V4.64867V4.6648V4.68093V4.69707V4.71321V4.72935V4.74549V4.76164V4.77779V4.79395V4.8101V4.82626V4.84241V4.85857V4.87473V4.89089V4.90705V4.92321V4.93937V4.95553V4.97169V4.98785V5.00401V5.02016V5.03631V5.05247V5.06861V5.08476V5.1009V5.11704V5.13318V5.14931V5.16544V5.18157V5.19769V5.21381V5.22992V5.24602V5.26213V5.27822V5.29431V5.31039V5.32647V5.34254V5.3586V5.37466V5.3907V5.40674V5.42278V5.4388V5.45481V5.47082V5.48682V5.5028V5.51878V5.53475V5.55071V5.56666V5.58259V5.59852V5.61443V5.63034V5.64623V5.66211V5.67797V5.69383V5.70967V5.7255V5.74132V5.75712V5.77291V5.78868V5.80444V5.82019V5.83592V5.85163V5.86733V5.88302V5.89869V5.91434V5.92998V5.94559V5.9612V5.97678V5.99235V6.0079V6.02343V6.03895V6.05444V6.06992V6.08538V6.10081V6.11623V6.13163V6.14701V6.16237V6.17771V6.19302V6.20832V6.2236V6.23885V6.25408V6.26929V6.28447V6.29964V6.31478V6.3299V6.34499V6.36006V6.37511V6.39013V6.40513V6.4201V6.43505V6.44997V6.46487V6.47974V6.49459V6.50941V6.5242V6.53896V6.5537V6.56841V6.5831V6.59775V6.61238V6.62698V6.64155V6.65609V6.6706V6.68508V6.69954V6.71396V6.72835V6.74271V6.75704V6.77135V6.78561V6.79985V6.81406V6.82823V6.84237V6.85648V6.87056V6.8846V6.89861V6.91258V6.92653V6.94043V6.95431V6.96815V6.98195V6.99572V7.00945V7.02315V7.03681V7.05043V7.06402V7.07757V7.09109V7.10456V7.118V7.13141V7.14477V7.1581V7.17138V7.18463V7.19784V7.21101V7.22414V7.23723V7.25028V7.26329V7.27626V7.28918V7.30207V7.31491V7.32772V7.34048V7.3532V7.36588V7.37851V7.3911V7.40365V7.41615V7.42861V7.44103V7.4534V7.46573V7.47801V7.49024V7.50244V7.51458V7.52668V7.53874V7.55074V7.5627V7.57462V7.58648V7.5983V7.61007V7.6218V7.63347V7.6451V7.65668V7.66821V7.67969V7.69112V7.7025V7.71383V7.72511V7.73633V7.74751V7.75864V7.76972V7.78074V7.79171V7.80263V7.8135V7.82431V7.83508V7.84578V7.85644V7.86704V7.87759V7.88808V7.89852V7.9089V7.91923V7.92951V7.93972V7.94989V7.95999V7.97004V7.98003V7.98997V7.99985V8.00967V8.01943V8.02914V8.03879V8.04838V8.05791V8.06738V8.07679V8.08615V8.09544V8.10467V8.11384V8.12296V8.13201V8.141V8.14993V8.1588V8.1676V8.17635V8.18503V8.19365V8.2022V8.2107V8.21913V8.22749V8.23579V8.24403V8.2522V8.26031V8.26836V8.27633V8.28425V8.29209V8.29988V8.30759V8.31524V8.32282V8.33033V8.33778V8.34516V8.35247V8.35972V8.36689V8.374V8.38104V8.388V8.3949V8.40173V8.40849V8.41518V8.4218V8.42835V8.43483V8.44123V8.44757V8.45383V8.46002V8.46614V8.47219V8.47816V8.48406V8.48989V8.49564V8.50132V8.50692V8.51245V8.51791V8.52329V8.5286V8.53383V8.53899V8.54406V8.54907V8.55399V8.55884V8.56362V8.56831V8.57293V8.57747V8.58193V8.58632V8.59062V8.59485V8.599V8.60307V8.60706V8.61096V8.61479V8.61854V8.62221V8.6258V8.6293V8.63273V8.63607V8.63933V8.64251V8.64561V8.64862V8.65155V8.6544V8.65716V8.65984V8.66244V8.66495V8.66738V8.66972V8.67198V8.67415V8.67624V8.67824V8.68015V8.68198V8.68372V8.68537V8.68694V8.68842V8.68981V8.69112V8.69233V8.69346V8.6945V8.69545V8.69631V8.69708V8.69777V8.69836V8.69886V8.69927V8.69959V8.69982V8.69995L23.5 8.7H22C22 11.0281 23.8388 13 26.2097 13H32V37.75C32 39.0147 30.9966 40 29.8077 40H5.19231C4.00334 40 3 39.0147 3 37.75V5.25002C3 3.98534 4.00334 3.00002 5.19231 3.00002H22ZM31.6657 10H26.2097C25.5876 10 25 9.4647 25 8.7H23.5L25 8.69995V8.69982V8.69959V8.69927V8.69886V8.69836V8.69777V8.69708V8.69631V8.69545V8.6945V8.69346V8.69233V8.69112V8.68981V8.68842V8.68694V8.68537V8.68372V8.68198V8.68015V8.67824V8.67624V8.67415V8.67198V8.66972V8.66738V8.66495V8.66244V8.65984V8.65716V8.6544V8.65155V8.64862V8.64561V8.64251V8.63933V8.63607V8.63273V8.6293V8.6258V8.62221V8.61854V8.61479V8.61096V8.60706V8.60307V8.599V8.59485V8.59062V8.58632V8.58193V8.57747V8.57293V8.56831V8.56362V8.55884V8.55399V8.54907V8.54406V8.53899V8.53383V8.5286V8.52329V8.51791V8.51245V8.50692V8.50132V8.49564V8.48989V8.48406V8.47816V8.47219V8.46614V8.46002V8.45383V8.44757V8.44123V8.43483V8.42835V8.4218V8.41518V8.40849V8.40173V8.3949V8.388V8.38104V8.374V8.36689V8.35972V8.35247V8.34516V8.33778V8.33033V8.32282V8.31524V8.30759V8.29988V8.29209V8.28425V8.27633V8.26836V8.26031V8.2522V8.24403V8.23579V8.22749V8.21913V8.2107V8.2022V8.19365V8.18503V8.17635V8.1676V8.1588V8.14993V8.141V8.13201V8.12296V8.11384V8.10467V8.09544V8.08615V8.07679V8.06738V8.05791V8.04838V8.03879V8.02914V8.01943V8.00967V7.99985V7.98997V7.98003V7.97004V7.95999V7.94989V7.93972V7.92951V7.91923V7.9089V7.89852V7.88808V7.87759V7.86704V7.85644V7.84578V7.83508V7.82431V7.8135V7.80263V7.79171V7.78074V7.76972V7.75864V7.74751V7.73633V7.72511V7.71383V7.7025V7.69112V7.67969V7.66821V7.65668V7.6451V7.63347V7.6218V7.61007V7.5983V7.58648V7.57462V7.5627V7.55074V7.53874V7.52668V7.51458V7.50244V7.49024V7.47801V7.46573V7.4534V7.44103V7.42861V7.41615V7.40365V7.3911V7.37851V7.36588V7.3532V7.34048V7.32772V7.31491V7.30207V7.28918V7.27626V7.26329V7.25028V7.23723V7.22414V7.21101V7.19784V7.18463V7.17138V7.1581V7.14477V7.13141V7.118V7.10456V7.09109V7.07757V7.06402V7.05043V7.03681V7.02315V7.00945V6.99572V6.98195V6.96815V6.95431V6.94043V6.92653V6.91258V6.89861V6.8846V6.87056V6.85648V6.84237V6.82823V6.81406V6.79985V6.78561V6.77135V6.75704V6.74271V6.72835V6.71396V6.69954V6.68508V6.6706V6.65609V6.64155V6.62698V6.61238V6.59775V6.5831V6.56841V6.5537V6.53896V6.5242V6.50941V6.49459V6.47974V6.46487V6.44997V6.43505V6.4201V6.40513V6.39013V6.37511V6.36006V6.34499V6.3299V6.31478V6.29964V6.28447V6.26929V6.25408V6.23885V6.2236V6.20832V6.19302V6.17771V6.16237V6.14701V6.13163V6.11623V6.10081V6.08538V6.06992V6.05444V6.03895V6.02343V6.0079V5.99235V5.97678V5.9612V5.94559V5.92998V5.91434V5.89869V5.88302V5.86733V5.85163V5.83592V5.82019V5.80444V5.78868V5.77291V5.75712V5.74132V5.7255V5.70967V5.69383V5.67797V5.66211V5.64623V5.63034V5.61443V5.59852V5.58259V5.56666V5.55071V5.53475V5.51878V5.5028V5.48682V5.47082V5.45481V5.4388V5.42278V5.40674V5.3907V5.37466V5.3586V5.34254V5.32647V5.31039V5.29431V5.27822V5.26213V5.24602V5.22992V5.21381V5.19769V5.18157V5.16544V5.14931V5.13318V5.11704V5.1009V5.08476V5.06861V5.05247V5.03631V5.02016V5.00401V4.98785V4.97169V4.95553V4.93937V4.92321V4.90705V4.89089V4.87473V4.85857V4.84241V4.82626V4.8101V4.79395V4.77779V4.76164V4.74549V4.72935V4.71321V4.69707V4.68093V4.6648V4.64867V4.63255V4.61643V4.60031V4.5842V4.5681V4.552V4.5359V4.51982V4.50373V4.48766V4.47159V4.45553V4.43948V4.42343V4.40739V4.39136V4.37534V4.35933V4.34333V4.32733V4.31135V4.29537V4.2794V4.26345V4.2475V4.23157V4.21565V4.19973V4.18383V4.16795V4.15207V4.1362V4.12035V4.10451V4.08869V4.07288V4.05708V4.04129V4.02552V4.00976V3.99402V3.97829V3.96258V3.94689V3.93121V3.91554V3.89989V3.88426V3.86865V3.85305V3.83747V3.8219V3.80636V3.79083V3.77532V3.75983V3.74436V3.7289V3.71347V3.69806V3.68266V3.66729V3.65193V3.6366V3.62129V3.606V3.59073V3.57548V3.56026V3.54505V3.52987V3.51471V3.49958V3.48447V3.46938V3.45431V3.43927V3.42426V3.40926V3.3943V3.37935V3.36444V3.34955V3.33468V3.31984V3.30503V3.29024V3.27549V3.26075V3.24605V3.23137V3.23018L31.6657 10Z" fill="black"/>
</svg>
