<svg width="24" height="26" viewBox="0 0 24 26" fill="none" xmlns="http://www.w3.org/2000/svg">
<path d="M9.74118 5.33684C9.27388 5.33684 8.89412 5.70495 8.89412 6.15789C8.89412 6.61084 9.27388 6.97895 9.74118 6.97895C10.2085 6.97895 10.5882 6.61084 10.5882 6.15789C10.5882 5.70495 10.2085 5.33684 9.74118 5.33684ZM9.74118 14.3684C9.27388 14.3684 8.89412 14.7365 8.89412 15.1895C8.89412 15.6424 9.27388 16.0105 9.74118 16.0105C10.2085 16.0105 10.5882 15.6424 10.5882 15.1895C10.5882 14.7365 10.2085 14.3684 9.74118 14.3684ZM9.74118 9.85263C9.27388 9.85263 8.89412 10.2207 8.89412 10.6737C8.89412 11.1266 9.27388 11.4947 9.74118 11.4947C10.2085 11.4947 10.5882 11.1266 10.5882 10.6737C10.5882 10.2207 10.2085 9.85263 9.74118 9.85263ZM14.2588 18.8842C13.7915 18.8842 13.4118 19.2523 13.4118 19.7053C13.4118 20.1582 13.7915 20.5263 14.2588 20.5263C14.7261 20.5263 15.1059 20.1582 15.1059 19.7053C15.1059 19.2523 14.7261 18.8842 14.2588 18.8842ZM5.08235 5.33684C4.61506 5.33684 4.23529 5.70495 4.23529 6.15789C4.23529 6.61084 4.61506 6.97895 5.08235 6.97895C5.54965 6.97895 5.92941 6.61084 5.92941 6.15789C5.92941 5.70495 5.54965 5.33684 5.08235 5.33684ZM5.08235 18.8842C4.61506 18.8842 4.23529 19.2523 4.23529 19.7053C4.23529 20.1582 4.61506 20.5263 5.08235 20.5263C5.54965 20.5263 5.92941 20.1582 5.92941 19.7053C5.92941 19.2523 5.54965 18.8842 5.08235 18.8842ZM5.08235 14.3684C4.61506 14.3684 4.23529 14.7365 4.23529 15.1895C4.23529 15.6424 4.61506 16.0105 5.08235 16.0105C5.54965 16.0105 5.92941 15.6424 5.92941 15.1895C5.92941 14.7365 5.54965 14.3684 5.08235 14.3684ZM5.08235 9.85263C4.61506 9.85263 4.23529 10.2207 4.23529 10.6737C4.23529 11.1266 4.61506 11.4947 5.08235 11.4947C5.54965 11.4947 5.92941 11.1266 5.92941 10.6737C5.92941 10.2207 5.54965 9.85263 5.08235 9.85263ZM9.74118 18.8842C9.27388 18.8842 8.89412 19.2523 8.89412 19.7053C8.89412 20.1582 9.27388 20.5263 9.74118 20.5263C10.2085 20.5263 10.5882 20.1582 10.5882 19.7053C10.5882 19.2523 10.2085 18.8842 9.74118 18.8842ZM18.9176 5.33684C18.4504 5.33684 18.0706 5.70495 18.0706 6.15789C18.0706 6.61084 18.4504 6.97895 18.9176 6.97895C19.3849 6.97895 19.7647 6.61084 19.7647 6.15789C19.7647 5.70495 19.3849 5.33684 18.9176 5.33684ZM18.9176 14.3684C18.4504 14.3684 18.0706 14.7365 18.0706 15.1895C18.0706 15.6424 18.4504 16.0105 18.9176 16.0105C19.3849 16.0105 19.7647 15.6424 19.7647 15.1895C19.7647 14.7365 19.3849 14.3684 18.9176 14.3684ZM18.9176 9.85263C18.4504 9.85263 18.0706 10.2207 18.0706 10.6737C18.0706 11.1266 18.4504 11.4947 18.9176 11.4947C19.3849 11.4947 19.7647 11.1266 19.7647 10.6737C19.7647 10.2207 19.3849 9.85263 18.9176 9.85263ZM24 2.73684C24 1.22474 22.8692 0 21.4744 0H2.52565C1.13082 0 0 1.22474 0 2.73684C0 2.73684 0 7.86568 0 13C0 18.1343 0 23.2632 0 23.2632C0 24.7753 1.13082 26 2.52565 26H21.4729C22.8678 26 23.9986 24.7753 23.9986 23.2632C23.9986 23.2632 23.9986 18.0673 23.9986 13C24 7.93274 24 2.73684 24 2.73684ZM23.1529 13C23.1529 17.6937 23.1529 23.2632 23.1529 23.2632C23.1529 24.5358 22.2042 25.1789 21.6 25.1789H2.54118C1.90306 25.1789 0.847059 24.6631 0.847059 23.2632C0.847059 23.2632 0.847059 18.0645 0.847059 13C0.847059 7.93547 0.847059 2.73684 0.847059 2.73684C0.847059 1.33695 1.90306 0.821053 2.54118 0.821053H21.6C22.2042 0.821053 23.1529 1.46421 23.1529 2.73684C23.1529 2.73684 23.1529 8.30632 23.1529 13ZM14.2588 5.33684C13.7915 5.33684 13.4118 5.70495 13.4118 6.15789C13.4118 6.61084 13.7915 6.97895 14.2588 6.97895C14.7261 6.97895 15.1059 6.61084 15.1059 6.15789C15.1059 5.70495 14.7261 5.33684 14.2588 5.33684ZM18.9176 18.8842C18.4504 18.8842 18.0706 19.2523 18.0706 19.7053C18.0706 20.1582 18.4504 20.5263 18.9176 20.5263C19.3849 20.5263 19.7647 20.1582 19.7647 19.7053C19.7647 19.2523 19.3849 18.8842 18.9176 18.8842ZM14.2588 9.85263C13.7915 9.85263 13.4118 10.2207 13.4118 10.6737C13.4118 11.1266 13.7915 11.4947 14.2588 11.4947C14.7261 11.4947 15.1059 11.1266 15.1059 10.6737C15.1059 10.2207 14.7261 9.85263 14.2588 9.85263ZM14.2588 14.3684C13.7915 14.3684 13.4118 14.7365 13.4118 15.1895C13.4118 15.6424 13.7915 16.0105 14.2588 16.0105C14.7261 16.0105 15.1059 15.6424 15.1059 15.1895C15.1059 14.7365 14.7261 14.3684 14.2588 14.3684Z" fill="black"/>
</svg>
