<svg width="25" height="26" viewBox="0 0 25 26" fill="none" xmlns="http://www.w3.org/2000/svg">
<path d="M24.7687 8.20779C24.3566 3.74126 20.6316 0.213474 16.0216 0.00957895L16.0188 0H0.8125C0.8125 0 0.8125 1.22474 0.8125 2.73684V4.12442V5.2V8.21053V9.30526V15.0526V16.1474V19.1579V20.2526V24.3579L2.34682 26L3.88113 24.3579L5.36887 26L6.85802 24.3579L8.34576 26L9.88149 24.3579L11.3226 26L12.8118 24.3579L14.2995 26L15.7887 24.3579L17.2764 26L18.7656 24.3579L20.2533 26L21.7425 24.3579L23.2316 26L24.8125 24.3579V23.2632C24.8125 23.2632 24.8125 15.3482 24.8125 9.30526V8.21053C24.7956 8.20779 24.7814 8.20916 24.7687 8.20779ZM12.5309 23.5711L11.3212 24.9053L9.88008 23.2632L8.34435 24.9053L6.85661 23.2632L5.36746 24.9053L3.87972 23.2632L2.34541 24.9053L1.50838 24.0842V20.4127C1.71164 20.5646 1.9036 20.7849 2.10121 21.0148C2.47244 21.4486 2.85496 21.8961 3.35605 21.8961C3.85573 21.8961 4.23966 21.4486 4.61089 21.0148C4.96377 20.6029 5.29689 20.2129 5.72034 20.2129C6.14379 20.2129 6.47691 20.6029 6.82979 21.0148C7.20102 21.4486 7.58354 21.8961 8.08463 21.8961C8.5843 21.8961 8.96824 21.4486 9.33947 21.0148C9.69234 20.6029 10.0255 20.2129 10.4489 20.2129C10.8724 20.2129 11.2055 20.6029 11.5584 21.0148C11.8562 21.3638 12.1639 21.7168 12.5337 21.8441V23.5711H12.5309ZM12.5309 20.7795C12.2331 20.6563 11.9719 20.3553 11.7009 20.0378C11.3297 19.6054 10.9472 19.1565 10.4461 19.1565C9.94642 19.1565 9.56249 19.604 9.19126 20.0378C8.83838 20.4497 8.50526 20.8397 8.08181 20.8397C7.65835 20.8397 7.32523 20.4497 6.97235 20.0378C6.60113 19.6054 6.2186 19.1565 5.71752 19.1565C5.21784 19.1565 4.83391 19.604 4.46268 20.0378C4.1098 20.4497 3.77668 20.8397 3.35323 20.8397C2.92977 20.8397 2.59666 20.4497 2.24378 20.0378C2.01088 19.7668 1.77374 19.4891 1.50555 19.3207V16.3088C1.70881 16.4607 1.90078 16.6811 2.09839 16.9109C2.46962 17.3447 2.85214 17.7922 3.35323 17.7922C3.8529 17.7922 4.23684 17.3447 4.60807 16.9109C4.96094 16.4991 5.29406 16.1091 5.71752 16.1091C6.14097 16.1091 6.47409 16.4991 6.82697 16.9109C7.1982 17.3434 7.58072 17.7922 8.08181 17.7922C8.58148 17.7922 8.96541 17.3447 9.33664 16.9109C9.68952 16.4991 10.0226 16.1091 10.4461 16.1091C10.8695 16.1091 11.2027 16.4991 11.5555 16.9109C11.8534 17.2599 12.1611 17.6129 12.5309 17.7402V20.7795ZM12.5309 16.6742C12.2331 16.5511 11.9719 16.25 11.7009 15.9325C11.3297 15.5001 10.9472 15.0513 10.4461 15.0513C9.94642 15.0513 9.56249 15.4987 9.19126 15.9325C8.83838 16.3444 8.50526 16.7344 8.08181 16.7344C7.65835 16.7344 7.32523 16.3444 6.97235 15.9325C6.60113 15.5001 6.2186 15.0513 5.71752 15.0513C5.21784 15.0513 4.83391 15.4987 4.46268 15.9325C4.1098 16.3444 3.77668 16.7344 3.35323 16.7344C2.92977 16.7344 2.59666 16.3444 2.24378 15.9325C2.01088 15.6616 1.77374 15.3838 1.50555 15.2155V13.4105H12.5267V16.6742H12.5309ZM12.5309 12.7263H1.50979V9.46537C1.71305 9.61726 1.90501 9.83758 2.10263 10.0675C2.47385 10.5013 2.85637 10.9487 3.35746 10.9487C3.85714 10.9487 4.24107 10.5013 4.6123 10.0675C4.96518 9.65558 5.2983 9.26558 5.72175 9.26558C6.14521 9.26558 6.47832 9.65558 6.8312 10.0675C7.20243 10.4999 7.58495 10.9487 8.08604 10.9487C8.58572 10.9487 8.96965 10.5013 9.34088 10.0675C9.69376 9.65558 10.0269 9.26558 10.4503 9.26558C10.8738 9.26558 11.2069 9.65558 11.5598 10.0675C11.8576 10.4164 12.1653 10.7695 12.5351 10.8967V12.7263H12.5309ZM12.5309 9.8321C12.2331 9.70895 11.9719 9.4079 11.7009 9.09042C11.3297 8.658 10.9472 8.20916 10.4461 8.20916C9.94642 8.20916 9.56249 8.65663 9.19126 9.09042C8.83838 9.50232 8.50526 9.89232 8.08181 9.89232C7.65835 9.89232 7.32523 9.50232 6.97235 9.09042C6.60113 8.658 6.2186 8.20916 5.71752 8.20916C5.21784 8.20916 4.83391 8.65663 4.46268 9.09042C4.1098 9.50232 3.77668 9.89232 3.35323 9.89232C2.92977 9.89232 2.59666 9.50232 2.24378 9.09042C2.01088 8.81947 1.77374 8.54168 1.50555 8.37337V5.36011C1.70881 5.512 1.90078 5.73232 2.09839 5.96221C2.46962 6.396 2.85214 6.84347 3.35323 6.84347C3.8529 6.84347 4.23684 6.396 4.60807 5.96221C4.96094 5.55032 5.29406 5.16032 5.71752 5.16032C6.14097 5.16032 6.47409 5.55032 6.82697 5.96221C7.1982 6.396 7.58072 6.84347 8.08181 6.84347C8.58148 6.84347 8.96541 6.396 9.33664 5.96221C9.68952 5.55032 10.0226 5.16032 10.4461 5.16032C10.8695 5.16032 11.2027 5.55032 11.5555 5.96221C11.8534 6.31116 12.1611 6.66421 12.5309 6.79147V9.8321ZM12.5309 5.72684C12.2331 5.60368 11.9719 5.30263 11.7009 4.98516C11.3297 4.55274 10.9472 4.10389 10.4461 4.10389C9.94642 4.10389 9.56249 4.55137 9.19126 4.98516C8.83838 5.39705 8.50526 5.78705 8.08181 5.78705C7.65835 5.78705 7.32523 5.39705 6.97235 4.98516C6.60113 4.55274 6.2186 4.10389 5.71752 4.10389C5.21784 4.10389 4.83391 4.55137 4.46268 4.98516C4.1098 5.39705 3.77668 5.78705 3.35323 5.78705C2.92977 5.78705 2.59666 5.39705 2.24378 4.98516C2.01088 4.71421 1.77374 4.43642 1.50555 4.26811V0.684211H12.5267V5.72684H12.5309ZM23.9712 7.93684C22.8688 7.44558 20.5215 6.69021 17.4218 7.93684C17.9455 6.36453 17.9455 3.77821 16.716 0.821053C20.3027 1.47516 23.6692 4.26811 23.9712 7.93684ZM23.8202 8.60463C23.6649 8.75105 23.5181 8.92074 23.3742 9.09042C23.0213 9.50232 22.6882 9.89232 22.2647 9.89232C21.8413 9.89232 21.5081 9.50232 21.1553 9.09042C20.784 8.658 20.4015 8.20916 19.9004 8.20916C19.4007 8.20916 19.0168 8.65663 18.6456 9.09042C18.2927 9.50232 17.9596 9.89232 17.5361 9.89232C17.1183 9.89232 16.788 9.51326 16.4408 9.10684C19.9258 7.47432 22.2915 8.00389 23.8202 8.60463ZM13.2296 0.684211H15.9341C16.6921 2.38105 16.9405 4.03958 16.9207 5.51337C16.7838 5.37653 16.5481 5.12474 16.4295 4.98516C16.0583 4.55274 15.6758 4.10389 15.1747 4.10389C14.675 4.10389 14.2911 4.55137 13.9198 4.98516C13.6912 5.252 13.471 5.50789 13.2296 5.65568V0.684211ZM13.2296 6.73263C13.5387 6.57389 13.8055 6.266 14.0652 5.96221C14.4181 5.55032 14.7512 5.16032 15.1747 5.16032C15.5981 5.16032 15.9312 5.55032 16.2841 5.96221C16.4253 6.12642 16.7076 6.42884 16.8586 6.57389C16.8685 6.48358 16.877 6.39463 16.884 6.30158L16.8586 6.57389L16.8572 6.57253C16.7626 7.50305 16.5721 8.33095 16.3575 9.00695C16.0075 8.60053 15.6419 8.20779 15.1733 8.20779C14.6736 8.20779 14.2897 8.65526 13.9184 9.08905C13.6898 9.35589 13.4696 9.61179 13.2282 9.75958V6.73263H13.2296ZM13.2296 10.8379C13.5387 10.6792 13.8055 10.3713 14.0652 10.0675C14.4181 9.65558 14.7512 9.26558 15.1747 9.26558C15.5981 9.26558 15.9312 9.65558 16.2841 10.0675C16.6554 10.4999 17.0379 10.9487 17.539 10.9487C18.0386 10.9487 18.4226 10.5013 18.7938 10.0675C19.1467 9.65558 19.4798 9.26558 19.9032 9.26558C20.3267 9.26558 20.6598 9.65558 21.0127 10.0675C21.3839 10.4999 21.7664 10.9487 22.2675 10.9487C22.7672 10.9487 23.1511 10.5013 23.5224 10.0675C23.72 9.83758 23.9105 9.61726 24.1152 9.46537V12.7263H13.2296V10.8379ZM13.2296 13.4105H24.111V15.2141C23.8428 15.3838 23.6057 15.6602 23.3728 15.9312C23.0199 16.3431 22.6868 16.7331 22.2633 16.7331C21.8398 16.7331 21.5067 16.3431 21.1539 15.9312C20.7826 15.4987 20.4001 15.0499 19.899 15.0499C19.3993 15.0499 19.0154 15.4974 18.6442 15.9312C18.2913 16.3431 17.9582 16.7331 17.5347 16.7331C17.1113 16.7331 16.7782 16.3431 16.4253 15.9312C16.054 15.4987 15.6715 15.0499 15.1704 15.0499C14.6708 15.0499 14.2868 15.4974 13.9156 15.9312C13.6869 16.198 13.4667 16.4539 13.2254 16.6017V13.4105H13.2296ZM13.2296 17.68C13.5387 17.5213 13.8055 17.2134 14.0652 16.9096C14.4181 16.4977 14.7512 16.1077 15.1747 16.1077C15.5981 16.1077 15.9312 16.4977 16.2841 16.9096C16.6554 17.342 17.0379 17.7908 17.539 17.7908C18.0386 17.7908 18.4226 17.3434 18.7938 16.9096C19.1467 16.4977 19.4798 16.1077 19.9032 16.1077C20.3267 16.1077 20.6598 16.4977 21.0127 16.9096C21.3839 17.342 21.7664 17.7908 22.2675 17.7908C22.7672 17.7908 23.1511 17.3434 23.5224 16.9096C23.72 16.6797 23.9105 16.4594 24.1152 16.3075V19.3194C23.847 19.4891 23.6099 19.7655 23.377 20.0364C23.0241 20.4483 22.691 20.8383 22.2675 20.8383C21.8441 20.8383 21.511 20.4483 21.1581 20.0364C20.7869 19.604 20.4043 19.1552 19.9032 19.1552C19.4036 19.1552 19.0196 19.6026 18.6484 20.0364C18.2955 20.4483 17.9624 20.8383 17.539 20.8383C17.1155 20.8383 16.7824 20.4483 16.4295 20.0364C16.0583 19.604 15.6758 19.1552 15.1747 19.1552C14.675 19.1552 14.2911 19.6026 13.9198 20.0364C13.6912 20.3033 13.471 20.5592 13.2296 20.7069V17.68ZM24.111 24.0842L23.2274 24.9053L21.7382 23.2632L20.2491 24.9053L18.7613 23.2632L17.2722 24.9053L15.7844 23.2632L14.2953 24.9053L13.2268 23.7257V21.7853C13.5359 21.6265 13.8027 21.3186 14.0624 21.0148C14.4153 20.6029 14.7484 20.2129 15.1718 20.2129C15.5953 20.2129 15.9284 20.6029 16.2813 21.0148C16.6525 21.4473 17.035 21.8961 17.5361 21.8961C18.0358 21.8961 18.4197 21.4486 18.791 21.0148C19.1439 20.6029 19.477 20.2129 19.9004 20.2129C20.3239 20.2129 20.657 20.6029 21.0099 21.0148C21.3811 21.4473 21.7636 21.8961 22.2647 21.8961C22.7644 21.8961 23.1483 21.4486 23.5196 21.0148C23.7172 20.7849 23.9077 20.5646 24.1124 20.4127C24.1124 21.9864 24.1124 22.9895 24.1124 22.9895C24.111 23.6956 24.111 23.9802 24.111 24.0842Z" fill="black"/>
</svg>
