<svg width="26" height="26" viewBox="0 0 26 26" fill="none" xmlns="http://www.w3.org/2000/svg">
<circle cx="13" cy="13" r="12.5" stroke="black"/>
<path d="M13.778 17.506H12.168V11.206H13.778V17.506ZM12 8.938C12 8.658 12.0933 8.434 12.28 8.266C12.476 8.08867 12.7187 8 13.008 8C13.26 8 13.4747 8.08867 13.652 8.266C13.8387 8.44333 13.932 8.66733 13.932 8.938C13.932 9.23667 13.8387 9.47933 13.652 9.666C13.4747 9.85267 13.26 9.946 13.008 9.946C12.7187 9.946 12.476 9.85267 12.28 9.666C12.0933 9.47933 12 9.23667 12 8.938Z" fill="#3C3C3C"/>
</svg>
