<svg width="36" height="28" viewBox="0 0 36 28" fill="none" xmlns="http://www.w3.org/2000/svg">
<path fill-rule="evenodd" clip-rule="evenodd" d="M20.4332 4.46522C20.4332 5.82672 19.3295 6.93044 17.968 6.93044C16.6065 6.93044 15.5028 5.82672 15.5028 4.46522C15.5028 3.10372 16.6065 2 17.968 2C19.3295 2 20.4332 3.10372 20.4332 4.46522ZM21.9483 6.49103C21.2099 7.9389 19.7047 8.93044 17.968 8.93044C15.5019 8.93044 13.5028 6.93129 13.5028 4.46522C13.5028 4.4367 13.503 4.40824 13.5036 4.37985L7.00859 2.75611L7.49366 0.81582L13.9877 2.43934C14.7261 0.991504 16.2313 0 17.968 0C20.4341 0 22.4332 1.99915 22.4332 4.46522C22.4332 4.49371 22.4329 4.52214 22.4324 4.55051L28.9267 6.17408L28.4416 8.11437L21.9483 6.49103ZM11.681 14.1817L7.2513 7.22078L2.82161 14.1817H11.681ZM2.08417 16.1817C2.2179 17.0174 2.52265 17.9802 3.08026 18.81C3.84534 19.9485 5.10672 20.8794 7.2513 20.8794C9.39589 20.8794 10.6573 19.9485 11.4223 18.81C11.98 17.9802 12.2847 17.0174 12.4184 16.1817H2.08417ZM23.6201 23.2753C23.0625 22.4455 22.7577 21.4825 22.624 20.6469H32.9583C32.8246 21.4825 32.5199 22.4455 31.9622 23.2753C31.1971 24.4138 29.9358 25.3447 27.7912 25.3447C25.6466 25.3447 24.3852 24.4138 23.6201 23.2753ZM27.7912 11.6861L23.3616 18.6469H32.2208L27.7912 11.6861ZM27.7912 8.82344C28.1331 8.82344 28.4513 8.99812 28.6348 9.28657L34.8861 19.11C34.9882 19.2705 35.0425 19.4567 35.0425 19.6469C35.0425 20.91 34.6965 22.7921 33.6222 24.3908C32.5119 26.0431 30.6476 27.3447 27.7912 27.3447C24.9347 27.3447 23.0704 26.0431 21.9601 24.3908C20.8858 22.7921 20.5399 20.91 20.5399 19.6469C20.5399 19.4567 20.5941 19.2705 20.6962 19.11L26.9475 9.28657C27.1311 8.99812 27.4493 8.82344 27.7912 8.82344ZM8.09496 4.82127C7.91141 4.53282 7.5932 4.35815 7.2513 4.35815C6.9094 4.35815 6.5912 4.53282 6.40764 4.82127L0.156339 14.6447C0.0542334 14.8052 0 14.9914 0 15.1816C0 16.4447 0.345939 18.3268 1.42026 19.9255C2.53057 21.5778 4.39484 22.8794 7.2513 22.8794C10.1078 22.8794 11.972 21.5778 13.0823 19.9255C14.1567 18.3268 14.5026 16.4447 14.5026 15.1816C14.5026 14.9914 14.4484 14.8052 14.3463 14.6447L8.09496 4.82127Z" fill="black"/>
</svg>
