<svg width="24" height="26" viewBox="0 0 24 26" fill="none" xmlns="http://www.w3.org/2000/svg">
<path fill-rule="evenodd" clip-rule="evenodd" d="M23.9995 7.6217C23.5717 7.6217 23.192 8.01442 22.8348 8.42629C22.4593 8.86006 22.071 9.30751 21.5656 9.30751C21.0588 9.30751 20.672 8.86006 20.2965 8.42629C19.9393 8.01442 19.6019 7.62444 19.1742 7.62444C18.7464 7.62444 18.409 8.01442 18.0518 8.42629C17.6763 8.85869 17.2881 9.30751 16.7827 9.30751C16.2759 9.30751 15.8891 8.86006 15.5135 8.42629C15.1564 8.01442 14.819 7.62444 14.3912 7.62444C13.9635 7.62444 13.6261 8.01442 13.2689 8.42629C13.0063 8.73007 12.7352 9.03795 12.4233 9.19667C12.4233 9.93421 12.4233 10.6718 12.4233 11.4038C12.6675 11.256 12.8905 11.0002 13.1221 10.7333C13.4976 10.3009 13.8858 9.85211 14.3912 9.85211C14.898 9.85211 15.2848 10.2996 15.6604 10.7333C16.0175 11.1452 16.3549 11.5352 16.7827 11.5352C17.2104 11.5352 17.5478 11.1452 17.905 10.7333C18.2805 10.3009 18.6688 9.85211 19.1742 9.85211C19.681 9.85211 20.0678 10.2996 20.4433 10.7333C20.8005 11.1452 21.1379 11.5352 21.5656 11.5352C21.9934 11.5352 22.3308 11.1452 22.688 10.7333C23.0635 10.2996 23.4517 9.85211 23.9571 9.85211C24.0178 9.85211 23.9388 9.85211 23.9995 9.8658V10.9317C23.9501 10.9208 24.0079 10.9098 23.9571 10.9085C23.5294 10.9085 23.192 11.2985 22.8348 11.7103C22.4635 12.14 22.0781 12.582 21.5783 12.5902C22.1162 12.5902 22.6428 12.5902 23.1524 12.5902H23.9995C23.9995 12.7489 23.9995 12.9076 23.9995 13.0664C23.9995 18.002 23.9995 23.2633 23.9995 23.2633C23.9995 24.7753 22.8687 26 21.4739 26H2.52559C1.1308 26 0 24.7753 0 23.2633V2.73807C0 1.22604 0 0.00136835 0 0.00136835C0 0.00136835 1.1308 0.00136835 2.52559 0.00136835C2.52559 0.00136835 6.80173 0.00136835 11.7174 0.00136835C12.0266 0.00136835 12.2567 0.00136835 12.4233 0.00136835V0.411873V0.822378C12.4233 1.06184 12.4233 1.30541 12.4233 1.55171C12.6675 1.40393 12.8905 1.14804 13.1221 0.881217C13.4976 0.44745 13.8858 0 14.3912 0C14.898 0 15.2848 0.44745 15.6604 0.881217C16.0175 1.29309 16.3549 1.68307 16.7827 1.68307C17.2104 1.68307 17.5478 1.29309 17.905 0.881217C18.2805 0.448818 18.6688 0 19.1742 0C19.681 0 20.0678 0.44745 20.4433 0.881217C20.8005 1.29309 21.1379 1.68307 21.5656 1.68307C21.9934 1.68307 22.3308 1.29309 22.688 0.881217C23.0635 0.44745 23.4517 0 23.9571 0C23.967 0 23.9854 0 23.9995 0V1.06047C23.9882 1.05773 23.9726 1.05773 23.9571 1.05637C23.5294 1.05637 23.192 1.44634 22.8348 1.85822C22.4593 2.29198 22.071 2.73943 21.5656 2.73943C21.0588 2.73943 20.672 2.29198 20.2965 1.85822C19.9393 1.44634 19.6019 1.05637 19.1742 1.05637C18.7464 1.05637 18.409 1.44634 18.0518 1.85822C17.6763 2.29062 17.2881 2.73943 16.7827 2.73943C16.2759 2.73943 15.8891 2.29198 15.5135 1.85822C15.1564 1.44634 14.819 1.05637 14.3912 1.05637C13.9635 1.05637 13.6261 1.44634 13.2689 1.85822C13.0063 2.16199 12.7352 2.46987 12.4233 2.6286C12.4233 3.34424 12.4233 4.08315 12.4233 4.83575C12.6675 4.68796 12.8905 4.43208 13.1221 4.16525C13.4976 3.73286 13.8858 3.28404 14.3912 3.28404C14.898 3.28404 15.2848 3.73149 15.6604 4.16525C16.0175 4.57713 16.3549 4.96711 16.7827 4.96711C17.2104 4.96711 17.5478 4.57713 17.905 4.16525C18.2805 3.73286 18.6688 3.28404 19.1742 3.28404C19.681 3.28404 20.0678 3.73149 20.4433 4.16525C20.8005 4.57713 21.1379 4.96711 21.5656 4.96711C21.9934 4.96711 22.3308 4.57713 22.688 4.16525C23.0635 3.73149 23.4517 3.28404 23.9571 3.28404C24.0178 3.28404 23.9896 3.28267 23.9995 3.28541V4.34314C23.9995 4.34314 24.0079 4.34177 23.9571 4.34177C23.5294 4.34177 23.192 4.73175 22.8348 5.14362C22.4593 5.57739 22.071 6.02484 21.5656 6.02484C21.0588 6.02484 20.672 5.57739 20.2965 5.14362C19.9393 4.73175 19.6019 4.34177 19.1742 4.34177C18.7464 4.34177 18.409 4.73175 18.0518 5.14362C17.6763 5.57602 17.2881 6.02484 16.7827 6.02484C16.2759 6.02484 15.8891 5.57739 15.5135 5.14362C15.1564 4.73175 14.819 4.34177 14.3912 4.34177C13.9635 4.34177 13.6261 4.73175 13.2689 5.14362C13.0063 5.4474 12.7352 5.75528 12.4233 5.914C12.4233 6.64197 12.4233 7.37951 12.4233 8.12115C12.6675 7.97337 12.8905 7.71749 13.1221 7.45066C13.4976 7.01826 13.8858 6.56944 14.3912 6.56944C14.898 6.56944 15.2848 7.01689 15.6604 7.45066C16.0175 7.86253 16.3549 8.25251 16.7827 8.25251C17.2104 8.25251 17.5478 7.86253 17.905 7.45066C18.2805 7.01826 18.6688 6.56944 19.1742 6.56944C19.681 6.56944 20.0678 7.01689 20.4433 7.45066C20.8005 7.86253 21.1379 8.25251 21.5656 8.25251C21.9934 8.25251 22.3308 7.86253 22.688 7.45066C23.0635 7.01689 23.4927 6.56397 23.9995 6.56397V7.6217ZM20.2965 11.7103C19.9393 11.2985 19.6019 10.9085 19.1742 10.9085C18.7464 10.9085 18.409 11.2985 18.0518 11.7103C17.6805 12.14 17.2951 12.582 16.7954 12.5902C18.4288 12.5902 20.0396 12.5902 21.5529 12.5902C21.0532 12.582 20.6692 12.14 20.2965 11.7103ZM20.0466 25.179H21.5995C22.2037 25.179 23.1524 24.5359 23.1524 23.2633C23.1524 23.2633 23.1524 17.9514 23.1524 13.4112C22.167 13.4112 21.1238 13.4112 20.0466 13.4112C20.0466 17.6462 20.0466 23.8243 20.0466 25.179ZM16.3761 25.179H19.1996C19.1996 23.8243 19.1996 17.6325 19.1996 13.4112C18.2735 13.4112 17.3276 13.4112 16.3761 13.4112C16.3761 17.6462 16.3761 23.8243 16.3761 25.179ZM12.4233 16.9689C12.4233 17.2467 12.4233 17.5203 12.4233 17.7899C12.4233 18.8777 12.4233 19.8903 12.4233 20.8003C12.4233 21.0849 12.4233 21.3586 12.4233 21.6213C12.4233 23.4768 12.4233 24.7753 12.4233 25.179H15.5291C15.5291 23.8243 15.5291 17.6325 15.5291 13.4112C14.4886 13.4112 13.4468 13.4112 12.4233 13.4112C12.4233 14.6413 12.4233 15.8386 12.4233 16.9689ZM12.4233 12.5902C13.8548 12.5902 15.3201 12.5902 16.77 12.5902C16.2702 12.582 15.8848 12.14 15.5135 11.7103C15.1564 11.2985 14.819 10.9085 14.3912 10.9085C13.9635 10.9085 13.6261 11.2985 13.2689 11.7103C13.0063 12.0141 12.7352 12.322 12.4233 12.4807C12.4233 12.5163 12.4233 12.5532 12.4233 12.5902ZM3.95285 0.822378C3.5011 0.822378 3.24699 0.822378 3.24699 0.822378C1.95807 0.822378 0.84704 0.822378 0.84704 0.822378C0.84704 0.822378 0.84704 2.09357 0.84704 3.49476V12.5902C1.53455 12.5902 2.61171 12.5902 3.95285 12.5902C3.95285 11.5858 3.95285 5.05879 3.95285 0.822378ZM7.62336 0.822378C6.50668 0.822378 5.53823 0.822378 4.79989 0.822378C4.79989 5.07384 4.79989 11.5872 4.79989 12.5902C5.66387 12.5902 6.61397 12.5902 7.62336 12.5902C7.62336 11.5858 7.62336 5.05879 7.62336 0.822378ZM11.5762 0.822378C10.4821 0.822378 9.43462 0.822378 8.4704 0.822378C8.4704 5.07384 8.4704 11.5872 8.4704 12.5902C9.46426 12.5902 10.5075 12.5902 11.5762 12.5902C11.5762 8.59186 11.5762 4.3144 11.5762 0.822378ZM11.5762 13.4112C6.82432 13.4112 2.59053 13.4112 0.84704 13.4112V16.9689C2.8277 16.9689 7.87465 16.9689 11.5762 16.9689C11.5762 15.8386 11.5762 14.6413 11.5762 13.4112ZM11.5762 17.7899C7.86477 17.7899 2.82488 17.7899 0.84704 17.7899V20.8003C2.8277 20.8003 7.87465 20.8003 11.5762 20.8003C11.5762 19.8903 11.5762 18.8764 11.5762 17.7899ZM11.5762 21.6213C7.86477 21.6213 2.82488 21.6213 0.84704 21.6213V23.2633C0.84704 24.6631 1.90302 25.179 2.54112 25.179H11.5762C11.5762 24.7753 11.5762 23.4768 11.5762 21.6213Z" fill="black"/>
</svg>
