<svg width="25" height="26" viewBox="0 0 25 26" fill="none" xmlns="http://www.w3.org/2000/svg">
<path d="M22.2881 0H3.3383C1.94339 0 0.8125 1.22603 0.8125 2.73667C0.8125 2.73667 0.8125 7.86518 0.8125 12.9992C0.8125 18.1331 0.8125 23.2617 0.8125 23.2617C0.8125 24.7737 1.94339 25.9983 3.3383 25.9983H22.2867C23.6816 25.9983 24.8125 24.7737 24.8125 23.2617C24.8125 23.2617 24.8125 18.0661 24.8125 12.9992C24.8125 7.93222 24.8125 2.73667 24.8125 2.73667C24.8139 1.22603 23.683 0 22.2881 0ZM17.1899 0.821H18.4606C17.9552 1.31086 17.4779 1.77336 17.1899 2.0525V0.821ZM3.35383 25.1773C3.07852 25.1773 2.72555 25.0802 2.41212 24.8585C3.49783 23.8062 5.04804 22.3038 5.04804 22.3038L8.01292 25.1773H3.35383ZM8.43648 24.63L5.04804 21.346C5.04804 21.346 2.97263 23.3574 1.94339 24.355C1.77114 24.0758 1.65961 23.7159 1.65961 23.2617C1.65961 23.2617 1.65961 22.4147 1.65961 21.0723L5.04804 17.7883L8.43648 21.0723V24.63ZM8.43648 20.1145L5.04804 16.8305L1.65961 20.1145C1.65961 19.0814 1.65961 17.8608 1.65961 16.5568L5.04804 13.2728L8.43648 16.5568V20.1145ZM8.43648 15.599L5.04804 12.315L1.65961 15.599V12.0413L5.04804 8.75733L8.43648 12.0413V15.599ZM8.43648 11.0835L5.04804 7.7995L1.65961 11.0835C1.65961 9.83694 1.65961 8.62323 1.65961 7.52583L5.04804 4.24183L8.43648 7.52583V11.0835ZM8.43648 6.568L5.04804 3.284L1.65961 6.568C1.65961 4.31025 1.65961 2.73667 1.65961 2.73667C1.65961 1.33686 2.71567 0.821 3.35383 0.821H6.17752C6.96533 1.58453 7.95927 2.54784 8.43648 3.01033V6.568ZM8.43648 2.0525L7.16581 0.821H8.43648V2.0525ZM11.9661 25.1773C12.456 24.7025 12.8132 24.3563 12.8132 24.3563C12.8132 24.3563 13.1704 24.7025 13.6603 25.1773H11.9661ZM16.3428 25.1773H14.6486C13.7309 24.2879 12.8132 23.3985 12.8132 23.3985C12.8132 23.3985 11.8955 24.2879 10.9778 25.1773H9.28359V23.2617L12.8132 19.8408L16.3428 23.2617V25.1773ZM16.3428 22.3038L12.8132 18.883L9.28359 22.3038V18.7462L12.8132 15.3253L16.3428 18.7462V22.3038ZM16.3428 17.7883L12.8132 14.3675L9.28359 17.7883V14.2307L12.8132 10.8098L16.3428 14.2307V17.7883ZM16.3428 13.2728L12.8132 9.85199L9.28359 13.2728V9.71516L12.8132 6.29433L16.3428 9.71516V13.2728ZM16.3428 8.75733L12.8132 5.3365L9.28359 8.75733V5.19966L12.8132 1.77883L16.3428 5.19966V8.75733ZM16.3428 4.24183L12.8132 0.821L9.28359 4.24183V0.821H12.8132H16.3428V4.24183ZM22.4138 25.1773H17.6135L20.5784 22.3038C20.5784 22.3038 22.137 23.8145 23.2228 24.8667C22.9531 25.072 22.6552 25.1773 22.4138 25.1773ZM23.9668 23.2617C23.9668 23.7009 23.8524 24.0635 23.6788 24.3508C22.6481 23.3533 20.5784 21.346 20.5784 21.346L17.1899 24.63V21.0723L20.5784 17.7883L23.9668 21.0723C23.9668 22.401 23.9668 23.2617 23.9668 23.2617ZM23.9668 20.1145L20.5784 16.8305L17.1899 20.1145V16.5568L20.5784 13.2728L23.9668 16.5568V20.1145ZM23.9668 15.599L20.5784 12.315L17.1899 15.599V12.0413L20.5784 8.75733L23.9668 12.0413V15.599ZM23.9668 11.0835L20.5784 7.7995L17.1899 11.0835V7.52583L20.5784 4.24183L23.9668 7.52583V11.0835ZM23.9668 6.568L20.5784 3.284L17.1899 6.568V3.01033C17.6671 2.54784 18.6597 1.5859 19.4489 0.821H22.4138C23.018 0.821 23.9668 1.46412 23.9668 2.73667C23.9668 2.73667 23.9668 4.34856 23.9668 6.568Z" fill="black"/>
</svg>
