<svg width="25" height="28" viewBox="0 0 25 28" fill="none" xmlns="http://www.w3.org/2000/svg">
<path fill-rule="evenodd" clip-rule="evenodd" d="M18.1533 8.05343C18.1533 11.3765 15.4245 14.1069 12.0132 14.1069C8.60183 14.1069 5.87305 11.3765 5.87305 8.05343C5.87305 4.73035 8.60183 2 12.0132 2C15.4245 2 18.1533 4.73035 18.1533 8.05343ZM15.1288 15.4959C18.0785 14.2859 20.1533 11.4094 20.1533 8.05343C20.1533 3.60564 16.5088 0 12.0132 0C7.5175 0 3.87305 3.60564 3.87305 8.05343C3.87305 11.4093 5.94781 14.2858 8.89753 15.4959C3.80128 16.7959 0 21.2085 0 26.5289V27.5289H1H23.0262H24.0262V26.5289C24.0262 21.2085 20.225 16.7959 15.1288 15.4959ZM12.0131 17.1068C17.2303 17.1068 21.441 20.8355 21.9701 25.5289H2.05609C2.58524 20.8355 6.79595 17.1068 12.0131 17.1068Z" fill="#f00"/>
</svg>
