<svg width="26" height="12" viewBox="0 0 26 12" fill="none" xmlns="http://www.w3.org/2000/svg">
<path fill-rule="evenodd" clip-rule="evenodd" d="M10 6C10 8.20914 8.20914 10 6 10C3.79086 10 2 8.20914 2 6C2 3.79086 3.79086 2 6 2C8.20914 2 10 3.79086 10 6ZM12 6C12 9.31371 9.31371 12 6 12C2.68629 12 0 9.31371 0 6C0 2.68629 2.68629 0 6 0C9.31371 0 12 2.68629 12 6ZM24 6C24 8.20914 22.2091 10 20 10C17.7909 10 16 8.20914 16 6C16 3.79086 17.7909 2 20 2C22.2091 2 24 3.79086 24 6ZM26 6C26 9.31371 23.3137 12 20 12C16.6863 12 14 9.31371 14 6C14 2.68629 16.6863 0 20 0C23.3137 0 26 2.68629 26 6Z" fill="black"/>
</svg>
