<svg width="24" height="26" viewBox="0 0 24 26" fill="none" xmlns="http://www.w3.org/2000/svg">
<path d="M21.4756 3.55789C21.4756 3.55789 18.9752 3.55789 15.8127 3.55789C15.8127 3.69063 15.8127 4.37895 15.8127 4.37895V10.5368H8.18872V0C5.00924 0 2.5258 0 2.5258 0C1.13089 0 0 1.22474 0 2.73684C0 2.73684 0 7.86568 0 13C0 18.1343 0 23.2632 0 23.2632C0 24.7753 1.13089 26 2.5258 26H21.4742C22.8691 26 24 24.7753 24 23.2632C24 23.2632 24 18.0673 24 13C24 7.93274 24 6.29474 24 6.29474C24.0014 4.78263 22.8705 3.55789 21.4756 3.55789ZM2.25896 25.1297C2.25896 25.1352 2.26037 25.142 2.26037 25.1475C1.63492 25.0202 0.84852 24.4715 0.84852 23.2632C0.84852 23.2632 0.84852 18.0645 0.84852 13C0.84852 7.93547 0.84852 2.73684 0.84852 2.73684C0.84852 1.52853 1.63492 0.97979 2.26037 0.852526C2.25896 0.858 2.25896 0.863474 2.25896 0.870316C2.25896 1.38347 2.44391 1.77758 2.6218 2.158C2.79122 2.52063 2.95217 2.86274 2.95217 3.29653C2.95217 3.73032 2.79122 4.07242 2.6218 4.43505C2.4425 4.81547 2.25896 5.20821 2.25896 5.72137C2.25896 6.23453 2.44391 6.62863 2.6218 7.00905C2.79122 7.37168 2.95217 7.71379 2.95217 8.14758C2.95217 8.58137 2.79122 8.92347 2.6218 9.28611C2.4425 9.66653 2.25896 10.0606 2.25896 10.5738C2.25896 11.0869 2.44391 11.4811 2.6218 11.8615C2.79122 12.2241 2.95217 12.5662 2.95217 13C2.95217 13.4338 2.79122 13.7759 2.6218 14.1385C2.4425 14.5189 2.25754 14.9131 2.25896 15.4262C2.25896 15.9394 2.44391 16.3335 2.6218 16.7139C2.79122 17.0765 2.95217 17.4186 2.95217 17.8524C2.95217 18.2862 2.79122 18.6283 2.6218 18.9909C2.4425 19.3714 2.25754 19.7655 2.25896 20.2786C2.25896 20.7918 2.44391 21.1859 2.6218 21.5663C2.79122 21.9289 2.95217 22.2711 2.95217 22.7048C2.95217 23.1386 2.79122 23.4807 2.6218 23.8434C2.4425 24.2238 2.25896 24.6165 2.25896 25.1297ZM4.80169 25.1789H2.69663C2.69663 25.1625 2.69381 25.1461 2.69381 25.1297C2.69381 24.6959 2.85476 24.3538 3.02418 23.9912C3.20348 23.6107 3.38843 23.2166 3.38702 22.7035C3.38702 22.1903 3.20207 21.7962 3.02418 21.4158C2.85334 21.0532 2.69381 20.7111 2.69381 20.2773C2.69381 19.8435 2.85476 19.5014 3.02418 19.1387C3.20348 18.7583 3.38702 18.3642 3.38702 17.8511C3.38702 17.3379 3.20207 16.9438 3.02418 16.5634C2.85334 16.2007 2.69381 15.8586 2.69381 15.4248C2.69381 14.9911 2.85476 14.6489 3.02418 14.2863C3.20489 13.9073 3.38843 13.5132 3.38843 13C3.38843 12.4868 3.20348 12.0927 3.02559 11.7123C2.85617 11.3497 2.69522 11.0076 2.69522 10.5738C2.69522 10.14 2.85617 9.79789 3.02559 9.43526C3.20489 9.05484 3.38843 8.66074 3.38843 8.14758C3.38843 7.63442 3.20348 7.24032 3.02559 6.8599C2.85617 6.49726 2.69522 6.15516 2.69522 5.72137C2.69522 5.28758 2.85617 4.94547 3.02559 4.58284C3.20489 4.20242 3.38843 3.80968 3.38843 3.29653C3.38843 2.78337 3.20348 2.38926 3.02559 2.00884C2.85617 1.64621 2.69522 1.30411 2.69522 0.870316C2.69522 0.853895 2.69663 0.837474 2.69804 0.821053H4.80311C4.80311 0.837474 4.80028 0.853895 4.80028 0.870316C4.80028 1.38347 4.98523 1.77758 5.16313 2.158C5.33255 2.52063 5.4935 2.86274 5.4935 3.29653C5.4935 3.73032 5.33255 4.07242 5.16313 4.43505C4.98382 4.81547 4.80028 5.20821 4.80028 5.72137C4.80028 6.23453 4.98523 6.62863 5.16313 7.00905C5.33255 7.37168 5.4935 7.71379 5.4935 8.14758C5.4935 8.58137 5.33255 8.92347 5.16313 9.28611C4.98382 9.66653 4.80028 10.0606 4.80028 10.5738C4.80028 11.0869 4.98523 11.4811 5.16313 11.8615C5.33255 12.2241 5.4935 12.5662 5.4935 13C5.4935 13.4338 5.33255 13.7759 5.16313 14.1385C4.98382 14.5189 4.79887 14.9131 4.80028 15.4262C4.80028 15.9394 4.98523 16.3335 5.16313 16.7139C5.33255 17.0765 5.4935 17.4186 5.4935 17.8524C5.4935 18.2862 5.33255 18.6283 5.16313 18.9909C4.98382 19.3714 4.79887 19.7655 4.80028 20.2786C4.80028 20.7918 4.98523 21.1859 5.16313 21.5663C5.33255 21.9289 5.4935 22.2711 5.4935 22.7048C5.4935 23.1386 5.33255 23.4807 5.16313 23.8434C4.98382 24.2238 4.79887 24.6179 4.80028 25.1311C4.80028 25.1461 4.80169 25.1625 4.80169 25.1789ZM7.34161 25.1789H5.23795C5.23795 25.1625 5.23513 25.1461 5.23513 25.1297C5.23513 24.6959 5.39608 24.3538 5.5655 23.9912C5.74481 23.6107 5.92976 23.2166 5.92835 22.7035C5.92835 22.1903 5.7434 21.7962 5.5655 21.4158C5.39467 21.0532 5.23513 20.7111 5.23513 20.2773C5.23513 19.8435 5.39608 19.5014 5.5655 19.1387C5.74481 18.7583 5.92835 18.3642 5.92835 17.8511C5.92835 17.3379 5.7434 16.9438 5.5655 16.5634C5.39467 16.2007 5.23513 15.8586 5.23513 15.4248C5.23513 14.9911 5.39608 14.6489 5.5655 14.2863C5.74622 13.9073 5.92976 13.5132 5.92976 13C5.92976 12.4868 5.74481 12.0927 5.56692 11.7123C5.39749 11.3497 5.23654 11.0076 5.23654 10.5738C5.23654 10.14 5.39749 9.79789 5.56692 9.43526C5.74622 9.05484 5.92976 8.66074 5.92976 8.14758C5.92976 7.63442 5.74481 7.24032 5.56692 6.8599C5.39749 6.49726 5.23654 6.15516 5.23654 5.72137C5.23654 5.28758 5.39749 4.94547 5.56692 4.58284C5.74622 4.20242 5.92976 3.80968 5.92976 3.29653C5.92976 2.78337 5.74481 2.38926 5.56692 2.00884C5.39749 1.64621 5.23654 1.30411 5.23654 0.870316C5.23654 0.853895 5.23795 0.837474 5.23937 0.821053H7.34161V25.1789ZM10.7216 25.1789H8.18872V11.3579H10.3954C10.2684 11.6521 10.1653 11.9696 10.1653 12.3527C10.1653 12.8659 10.3503 13.26 10.5281 13.6404C10.6976 14.0031 10.8585 14.3452 10.8585 14.7789C10.8585 15.2127 10.6976 15.5548 10.5281 15.9175C10.3488 16.2979 10.1639 16.692 10.1653 17.2052C10.1653 17.7183 10.3503 18.1124 10.5281 18.4928C10.6976 18.8555 10.8585 19.1976 10.8585 19.6314C10.8585 20.0652 10.6976 20.4073 10.5281 20.7699C10.3488 21.1503 10.1639 21.5444 10.1653 22.0576C10.1653 22.5707 10.3503 22.9648 10.5281 23.3453C10.6976 23.7079 10.8585 24.05 10.8585 24.4838C10.8585 24.7397 10.802 24.9641 10.7216 25.1789ZM13.2629 25.1789H11.1804C11.2496 24.9682 11.2962 24.7411 11.2962 24.4824C11.2962 23.9693 11.1112 23.5752 10.9333 23.1947C10.7625 22.8321 10.603 22.49 10.603 22.0562C10.603 21.6224 10.7639 21.2803 10.9333 20.9177C11.1127 20.5373 11.2962 20.1432 11.2962 19.63C11.2962 19.1168 11.1112 18.7227 10.9333 18.3423C10.7625 17.9797 10.603 17.6376 10.603 17.2038C10.603 16.77 10.7639 16.4279 10.9333 16.0653C11.1112 15.6862 11.2948 15.2921 11.2948 14.7789C11.2948 14.2658 11.1098 13.8717 10.9319 13.4913C10.7625 13.1286 10.6016 12.7865 10.6016 12.3527C10.6016 11.9764 10.723 11.6685 10.8656 11.3579H12.9368C12.8097 11.6521 12.7066 11.9696 12.7066 12.3527C12.7066 12.8659 12.8916 13.26 13.0695 13.6404C13.2389 14.0031 13.3998 14.3452 13.3998 14.7789C13.3998 15.2127 13.2389 15.5548 13.0695 15.9175C12.8902 16.2979 12.7052 16.692 12.7066 17.2052C12.7066 17.7183 12.8916 18.1124 13.0695 18.4928C13.2389 18.8555 13.3998 19.1976 13.3998 19.6314C13.3998 20.0652 13.2389 20.4073 13.0695 20.7699C12.8902 21.1503 12.7052 21.5444 12.7066 22.0576C12.7066 22.5707 12.8916 22.9648 13.0695 23.3453C13.2389 23.7079 13.3998 24.05 13.3998 24.4838C13.3998 24.7397 13.3434 24.9641 13.2629 25.1789ZM15.8127 25.1789H13.7217C13.7909 24.9682 13.8375 24.7411 13.8375 24.4824C13.8375 23.9693 13.6526 23.5752 13.4747 23.1947C13.3038 22.8321 13.1443 22.49 13.1443 22.0562C13.1443 21.6224 13.3053 21.2803 13.4747 20.9177C13.654 20.5373 13.8375 20.1432 13.8375 19.63C13.8375 19.1168 13.6526 18.7227 13.4747 18.3423C13.3038 17.9797 13.1443 17.6376 13.1443 17.2038C13.1443 16.77 13.3053 16.4279 13.4747 16.0653C13.6526 15.6862 13.8361 15.2921 13.8361 14.7789C13.8361 14.2658 13.6512 13.8717 13.4733 13.4913C13.3038 13.1286 13.1429 12.7865 13.1429 12.3527C13.1429 11.9764 13.2643 11.6685 13.4069 11.3579H15.8127V25.1789ZM18.0731 25.1789H16.6598V4.37895H18.4627C18.4528 4.39674 18.4444 4.41453 18.4345 4.43368C18.2552 4.81411 18.0716 5.20821 18.0716 5.72137C18.0716 6.23453 18.2566 6.62863 18.4345 7.00905C18.6039 7.37168 18.7649 7.71379 18.7649 8.14758C18.7649 8.58137 18.6039 8.92347 18.4345 9.28611C18.2552 9.66653 18.0716 10.0606 18.0716 10.5738C18.0716 11.0869 18.2566 11.4811 18.4345 11.8615C18.6039 12.2241 18.7649 12.5662 18.7649 13C18.7649 13.4338 18.6039 13.7759 18.4345 14.1385C18.2552 14.5189 18.0702 14.9131 18.0716 15.4262C18.0716 15.9394 18.2566 16.3335 18.4345 16.7139C18.6039 17.0765 18.7649 17.4186 18.7649 17.8524C18.7649 18.2862 18.6039 18.6283 18.4345 18.9909C18.2552 19.3714 18.0702 19.7655 18.0716 20.2786C18.0716 20.7918 18.2566 21.1859 18.4345 21.5663C18.6039 21.9289 18.7649 22.2711 18.7649 22.7048C18.7649 23.1386 18.6039 23.4807 18.4345 23.8434C18.2552 24.2238 18.0702 24.6179 18.0716 25.1311C18.0716 25.1461 18.0731 25.1625 18.0731 25.1789ZM20.6144 25.1789H18.5093C18.5093 25.1625 18.5065 25.1461 18.5065 25.1297C18.5065 24.6959 18.6674 24.3538 18.8369 23.9912C19.0162 23.6107 19.2011 23.2166 19.1997 22.7035C19.1997 22.1903 19.0148 21.7962 18.8369 21.4158C18.666 21.0532 18.5065 20.7111 18.5065 20.2773C18.5065 19.8435 18.6674 19.5014 18.8369 19.1387C19.0162 18.7583 19.1997 18.3642 19.1997 17.8511C19.1997 17.3379 19.0148 16.9438 18.8369 16.5634C18.666 16.2007 18.5065 15.8586 18.5065 15.4248C18.5065 14.9911 18.6674 14.6489 18.8369 14.2863C19.0162 13.9059 19.1997 13.5118 19.1997 12.9986C19.1997 12.4855 19.0148 12.0914 18.8369 11.7109C18.6674 11.3483 18.5065 11.0062 18.5065 10.5724C18.5065 10.1386 18.6674 9.79653 18.8369 9.4339C19.0162 9.05347 19.1997 8.65937 19.1997 8.14621C19.1997 7.63305 19.0148 7.23895 18.8369 6.85853C18.6674 6.49589 18.5065 6.15379 18.5065 5.72C18.5065 5.28621 18.6674 4.94411 18.8369 4.58147C18.8764 4.49663 18.9159 4.43232 18.9555 4.37758H21.0026C20.9928 4.39537 20.9843 4.41316 20.9744 4.43232C20.7951 4.81274 20.6116 5.20684 20.6116 5.72C20.6116 6.23316 20.7965 6.62726 20.9744 7.00768C21.1438 7.37032 21.3048 7.71242 21.3048 8.14621C21.3048 8.58 21.1438 8.92211 20.9744 9.28474C20.7951 9.66516 20.6116 10.0593 20.6116 10.5724C20.6116 11.0856 20.7965 11.4797 20.9744 11.8601C21.1438 12.2227 21.3048 12.5648 21.3048 12.9986C21.3048 13.4324 21.1438 13.7745 20.9744 14.1372C20.7951 14.5176 20.6102 14.9117 20.6116 15.4248C20.6116 15.938 20.7965 16.3321 20.9744 16.7125C21.1438 17.0752 21.3048 17.4173 21.3048 17.8511C21.3048 18.2848 21.1438 18.6269 20.9744 18.9896C20.7951 19.37 20.6102 19.7641 20.6116 20.2773C20.6116 20.7904 20.7965 21.1845 20.9744 21.5649C21.1438 21.9276 21.3048 22.2697 21.3048 22.7035C21.3048 23.1373 21.1438 23.4794 20.9744 23.842C20.7951 24.2224 20.6102 24.6165 20.6116 25.1297C20.613 25.1461 20.6144 25.1625 20.6144 25.1789ZM23.1543 13C23.1543 17.6937 23.1543 23.2632 23.1543 23.2632C23.1543 24.5358 22.2055 25.1789 21.6013 25.1789H21.0506C21.0506 25.1625 21.0478 25.1461 21.0478 25.1297C21.0478 24.6959 21.2088 24.3538 21.3782 23.9912C21.5575 23.6107 21.7425 23.2166 21.741 22.7035C21.741 22.1903 21.5561 21.7962 21.3782 21.4158C21.2074 21.0532 21.0478 20.7111 21.0478 20.2773C21.0478 19.8435 21.2088 19.5014 21.3782 19.1387C21.5575 18.7583 21.741 18.3642 21.741 17.8511C21.741 17.3379 21.5561 16.9438 21.3782 16.5634C21.2074 16.2007 21.0478 15.8586 21.0478 15.4248C21.0478 14.9911 21.2088 14.6489 21.3782 14.2863C21.5575 13.9059 21.741 13.5118 21.741 12.9986C21.741 12.4855 21.5561 12.0914 21.3782 11.7109C21.2088 11.3483 21.0478 11.0062 21.0478 10.5724C21.0478 10.1386 21.2088 9.79653 21.3782 9.4339C21.5575 9.05347 21.741 8.65937 21.741 8.14621C21.741 7.63305 21.5561 7.23895 21.3782 6.85853C21.2088 6.49589 21.0478 6.15379 21.0478 5.72C21.0478 5.28621 21.2088 4.94411 21.3782 4.58147C21.4177 4.49663 21.4573 4.43232 21.4968 4.37758C21.5617 4.37758 21.6013 4.37758 21.6013 4.37758C22.2055 4.37758 23.1543 5.02074 23.1543 6.29337C23.1543 6.29337 23.1543 8.30632 23.1543 13Z" fill="black"/>
</svg>
