<svg width="24" height="26" viewBox="0 0 24 26" fill="none" xmlns="http://www.w3.org/2000/svg">
<path fill-rule="evenodd" clip-rule="evenodd" d="M23.7548 15.0518C24.5359 8.52829 23.3796 4.40984 21.2937 2.54706L21.2948 2.54598C17.9283 -0.635131 6.55878 -1.10597 2.53113 2.68885C0.722399 4.54513 0.0853057 7.26948 0.0154872 10.6422C-0.0543312 14.0159 -0.137241 20.336 5.79842 22.0504H5.80387L5.79842 24.6687C5.79842 24.6687 5.75805 25.7294 6.44096 25.9427C7.17652 26.1791 7.53284 25.7562 9.60071 23.3018C9.72874 23.1498 9.86333 22.99 10.005 22.8222C14.0675 23.1718 17.1875 22.3708 17.5421 22.2539C17.6153 22.2296 17.7191 22.2025 17.8478 22.169L17.8479 22.169C19.1606 21.8268 23.0713 20.8073 23.7548 15.0518ZM10.4053 20.98C10.4053 20.98 7.83406 24.1611 7.03442 24.9869C6.7726 25.2554 6.48569 25.2305 6.49005 24.6979C6.49005 24.3483 6.50969 20.3511 6.50969 20.3511C1.65025 18.9694 1.75994 13.9038 1.82233 11.0224L1.82233 11.0224C1.82455 10.9198 1.82671 10.8201 1.82858 10.7234C1.88313 7.907 2.4024 5.60045 3.93405 4.04724C7.46751 0.760055 17.4352 1.49499 19.9748 3.86323C22.8008 6.34892 22.139 12.9642 22.0023 14.3303C21.9888 14.465 21.9804 14.5487 21.981 14.5723C21.4064 19.3223 18.2997 20.0666 17.1816 20.3345L17.1816 20.3345L17.1816 20.3345C17.0579 20.3641 16.9586 20.3879 16.8897 20.4106C16.5941 20.5081 13.8504 21.2084 10.4053 20.98ZM11.8279 4.66525C11.4079 4.66525 11.4079 5.31468 11.8279 5.32009C15.0865 5.34499 17.7701 7.5985 17.7996 11.7321C17.7996 12.1683 18.4432 12.1629 18.4378 11.7267H18.4367C18.4018 7.2727 15.4716 4.69015 11.8279 4.66525ZM16.7523 11.0621C16.7469 11.4983 16.1043 11.4777 16.1141 11.047C16.1643 8.89627 14.8541 7.21209 12.3668 7.02483C11.9479 6.99453 11.9916 6.33969 12.4116 6.36999C15.2796 6.58322 16.8058 8.60619 16.7523 11.0621ZM15.427 13.8406C14.8881 13.531 14.3393 13.7237 14.1124 14.0278L13.6379 14.6372C13.3968 14.9468 12.9463 14.9057 12.9463 14.9057C9.65824 14.043 8.77896 10.6292 8.77896 10.6292C8.77896 10.6292 8.7386 10.167 9.03969 9.91914L9.63315 9.43207C9.92988 9.19827 10.1175 8.63543 9.81533 8.08234C9.20663 6.99117 8.74865 6.43907 8.44185 6.06923C8.34176 5.94857 8.25776 5.84731 8.18987 5.75306C7.89969 5.39263 7.46332 5.31145 7.0095 5.55498H6.99968C6.05604 6.10267 5.02295 7.12768 5.3535 8.183C5.45129 8.37594 5.56329 8.64207 5.69885 8.96417L5.69886 8.96419C6.34508 10.4997 7.52666 13.3074 10.2572 15.5226C11.8095 16.7901 14.2663 18.0889 15.3092 18.3887L15.319 18.4039C16.3466 18.7438 17.3459 17.6787 17.8794 16.7143V16.7067C18.1161 16.2402 18.0375 15.7986 17.6917 15.5096C17.0786 14.9165 16.1535 14.2616 15.427 13.8406ZM14.4723 10.5057C14.4178 9.38978 13.9094 8.84642 12.8611 8.78581C12.4367 8.76092 12.476 8.10608 12.896 8.13097C14.2749 8.20674 15.0407 9.01852 15.1105 10.4754C15.1302 10.9116 14.492 10.9419 14.4723 10.5057Z" fill="black"/>
</svg>
