<svg width="30" height="28" viewBox="0 0 30 28" fill="none" xmlns="http://www.w3.org/2000/svg">
<path d="M28.9546 8.3487L28.9577 8.38278L28.9631 8.41657C28.9785 8.51218 29.12 9.49096 28.722 11.1633L28.7219 11.1636C28.1495 13.5721 26.8253 15.7749 24.8752 17.5307L14.9159 26.3514L5.12796 17.533L5.12739 17.5325C3.17585 15.777 1.85062 13.5727 1.27797 11.1636L1.27792 11.1634C0.879772 9.48977 1.02167 8.51169 1.03691 8.41862L1.04267 8.38348L1.04591 8.34801C1.44533 3.97758 4.51126 1 8.16846 1C10.5936 1 12.7728 2.28419 14.0554 4.46307L14.9077 5.91109L15.774 4.47136C17.0645 2.32662 19.3491 1.00057 21.8314 1.00057C25.4892 1.00057 28.5546 3.97812 28.9546 8.3487Z" fill="black" stroke="black" stroke-width="2"/>
</svg>
