<svg width="28" height="19" viewBox="0 0 28 19" fill="none" xmlns="http://www.w3.org/2000/svg">
<path fill-rule="evenodd" clip-rule="evenodd" d="M11.289 0.685951C11.2719 0.487098 11.1763 0.30324 11.0233 0.175076C10.8704 0.0469114 10.6726 -0.0149871 10.4738 0.00308223L7.01771 0.317274L7.15351 1.81111L9.85884 1.56517L10.0907 4.27017L10.0907 4.27017L10.0912 4.27594L10.7376 11.1882C10.7392 11.2061 10.7415 11.2239 10.7445 11.2416C10.9255 12.3278 11.3756 13.1276 11.997 13.6542L12.003 13.6593C11.4163 14.1984 11.0486 14.9721 11.0486 15.8317C11.0486 17.4606 12.369 18.781 13.9979 18.781C15.6268 18.781 16.9473 17.4606 16.9473 15.8317C16.9473 15.3047 16.809 14.81 16.5669 14.3819H20.2263C19.9841 14.81 19.8459 15.3047 19.8459 15.8317C19.8459 17.4606 21.1664 18.781 22.7953 18.781C24.4241 18.781 25.7446 17.4606 25.7446 15.8317C25.7446 14.2028 24.4241 12.8823 22.7953 12.8823H22.7952V12.8819H13.9978C13.6488 12.8819 13.2775 12.7732 12.9668 12.5099C12.7846 12.3555 12.603 12.1308 12.4578 11.8051L25.6728 10.9241C26.0081 10.9018 26.2876 10.6591 26.3569 10.3303L27.6136 4.36062C27.6602 4.13945 27.6045 3.90907 27.4621 3.73356C27.3197 3.55805 27.1057 3.45612 26.8797 3.45612H11.5264L11.289 0.685951ZM11.6614 4.95612L12.1631 10.3214L25.0061 9.46523L25.9554 4.95612H11.6614ZM21.3459 15.8317C21.3459 15.0312 21.9948 14.3823 22.7953 14.3823C23.5957 14.3823 24.2446 15.0312 24.2446 15.8317C24.2446 16.6321 23.5957 17.281 22.7953 17.281C21.9948 17.281 21.3459 16.6321 21.3459 15.8317ZM13.9979 14.3823C13.1975 14.3823 12.5486 15.0312 12.5486 15.8317C12.5486 16.6321 13.1975 17.281 13.9979 17.281C14.7984 17.281 15.4473 16.6321 15.4473 15.8317C15.4473 15.0312 14.7984 14.3823 13.9979 14.3823ZM0 9.50836H3.25885L3.25885 12.7675H4.75885L4.75885 9.5086H8.0177V8.0086H4.75885V4.74951H3.25885L3.25885 8.00836H0V9.50836Z" fill="black"/>
</svg>
