<svg width="17" height="16" viewBox="0 0 17 16" fill="none" xmlns="http://www.w3.org/2000/svg">
<path d="M8.49991 0.497263L8.05341 0.273901L8.49991 0.497263ZM8.49991 0.497263L8.49992 0.49726L8.49991 0.497263ZM10.4092 5.43296L10.6434 5.90116L11.1616 5.97546L15.4025 6.5835L12.3427 9.52608L11.9596 9.89451L12.0506 10.4182L12.776 14.59L8.96046 12.6108L8.5 12.3719L8.03954 12.6108L4.22388 14.59L4.94897 10.4181L5.03997 9.89451L4.65693 9.52612L1.59738 6.58351L5.83833 5.97546L6.35653 5.90116L6.59074 5.43297L8.5 1.61635L10.4092 5.43296ZM16.1565 5.85846L16.1564 5.85851L16.1565 5.85846ZM4.04887 15.597L4.0489 15.5968L4.04887 15.597ZM0.568194 6.73108L0.568347 6.73105L0.568194 6.73108ZM8.94776 0.721282C8.94764 0.721506 8.94753 0.721729 8.94742 0.721952L8.94775 0.721293L8.94776 0.721282ZM8.05261 0.721973C8.05247 0.721696 8.05233 0.721418 8.05219 0.72114L8.05226 0.721278L8.05261 0.721973Z" stroke="black" stroke-width="2"/>
</svg>
