<svg width="33" height="30" viewBox="0 0 33 30" fill="none" xmlns="http://www.w3.org/2000/svg">
<path fill-rule="evenodd" clip-rule="evenodd" d="M6.2327 0.233434C6.43669 0.40432 6.56416 0.649464 6.58688 0.914602L6.97992 5.5H31.5905C31.8919 5.5 32.1772 5.63591 32.3671 5.86993C32.5569 6.10395 32.6312 6.41112 32.5691 6.70601L30.5691 16.206C30.4768 16.6445 30.1041 16.968 29.6571 16.9978L8.35911 18.4177C8.61364 19.0973 8.96339 19.556 9.32456 19.8621C9.85851 20.3146 10.4954 20.5 11.0905 20.5H25.0905C27.5758 20.5 29.5905 22.5147 29.5905 25C29.5905 27.4853 27.5758 29.5 25.0905 29.5C22.6053 29.5 20.5905 27.4853 20.5905 25C20.5905 24.0749 20.8697 23.2151 21.3483 22.5H14.8328C15.3114 23.2151 15.5905 24.0749 15.5905 25C15.5905 27.4853 13.5758 29.5 11.0905 29.5C8.60525 29.5 6.59054 27.4853 6.59054 25C6.59054 23.6074 7.22316 22.3625 8.21672 21.537C8.15431 21.4893 8.09255 21.4396 8.03151 21.3879C7.08344 20.5844 6.38604 19.3558 6.10414 17.6644C6.1002 17.6408 6.09711 17.617 6.09488 17.5931L5.06631 6.5931L5.06559 6.58541L5.06562 6.5854L4.68003 2.0869L0.181071 2.4959L0 0.50411L5.5 0.00410966C5.76502 -0.0199828 6.02871 0.0625484 6.2327 0.233434ZM11.0905 22.5C9.70982 22.5 8.59054 23.6193 8.59054 25C8.59054 26.3807 9.70982 27.5 11.0905 27.5C12.4712 27.5 13.5905 26.3807 13.5905 25C13.5905 23.6193 12.4712 22.5 11.0905 22.5ZM22.5905 25C22.5905 23.6193 23.7098 22.5 25.0905 22.5C26.4712 22.5 27.5905 23.6193 27.5905 25C27.5905 26.3807 26.4712 27.5 25.0905 27.5C23.7098 27.5 22.5905 26.3807 22.5905 25ZM7.99554 16.4374L7.15983 7.5H30.3581L28.7681 15.0526L7.99554 16.4374Z" fill="#f00"/>
</svg>
