<svg width="25" height="26" viewBox="0 0 25 26" fill="none" xmlns="http://www.w3.org/2000/svg">
<path d="M23.2281 0L21.739 1.64211L20.2512 0L18.7635 1.64211L17.2757 0L15.788 1.64211L14.2989 0L12.8111 1.64211L11.3234 0L9.88222 1.64211L8.34649 0L6.85875 1.64211L5.37102 0L3.88328 1.64211L2.34896 0L0.813232 1.64211V5.49284V6.56842V9.57895V10.6737V13.6842V14.7789V17.7895V18.8842V24.3579L2.34755 26L3.88187 24.3579L5.3696 26L6.85875 24.3579L8.34649 26L9.88222 24.3579L11.3234 26L12.8125 24.3579L14.3003 26L15.7894 24.3579L17.2772 26L18.7663 24.3579L20.254 26L21.7432 24.3579L23.2323 26L24.8132 24.3579V1.64211L23.2281 0ZM24.1117 22.9895C24.1117 23.6956 24.1117 23.9802 24.1117 24.0842L23.2281 24.9053L21.739 23.2632L20.2498 24.9053L18.7621 23.2632L17.2729 24.9053L15.7852 23.2632L14.296 24.9053L12.8083 23.2632L11.3191 24.9053L9.87799 23.2632L8.34226 24.9053L6.85452 23.2632L5.36537 24.9053L3.87763 23.2632L2.34332 24.9053L1.50629 24.0842C1.50629 24.1129 1.50629 24.1266 1.50629 24.1321C1.50629 24.1225 1.50629 24.0842 1.50629 24.0842C1.50629 23.9829 1.50629 23.7011 1.50629 22.9895V19.0443C1.70954 19.1962 1.90151 19.4165 2.09912 19.6464C2.47035 20.0802 2.85287 20.5277 3.35396 20.5277C3.85364 20.5277 4.23757 20.0802 4.6088 19.6464C4.96168 19.2345 5.29479 18.8445 5.71825 18.8445C6.1417 18.8445 6.47482 19.2345 6.8277 19.6464C7.19893 20.0788 7.58145 20.5277 8.08254 20.5277C8.58221 20.5277 8.96615 20.0802 9.33738 19.6464C9.69025 19.2345 10.0234 18.8445 10.4468 18.8445C10.8703 18.8445 11.2034 19.2345 11.5563 19.6464C11.9275 20.0788 12.31 20.5277 12.8111 20.5277C13.3108 20.5277 13.6947 20.0802 14.066 19.6464C14.4188 19.2345 14.7519 18.8445 15.1754 18.8445C15.5989 18.8445 15.932 19.2345 16.2849 19.6464C16.6561 20.0788 17.0386 20.5277 17.5397 20.5277C18.0394 20.5277 18.4233 20.0802 18.7945 19.6464C19.1474 19.2345 19.4805 18.8445 19.904 18.8445C20.3274 18.8445 20.6606 19.2345 21.0134 19.6464C21.3847 20.0788 21.7672 20.5277 22.2683 20.5277C22.7679 20.5277 23.1519 20.0802 23.5231 19.6464C23.7207 19.4165 23.9113 19.1962 24.1159 19.0443V22.9895H24.1117ZM24.1117 17.9523C23.8435 18.122 23.6064 18.3984 23.3735 18.6694C23.0206 19.0813 22.6875 19.4713 22.264 19.4713C21.8406 19.4713 21.5075 19.0813 21.1546 18.6694C20.7834 18.2369 20.4008 17.7881 19.8997 17.7881C19.4001 17.7881 19.0161 18.2356 18.6449 18.6694C18.292 19.0813 17.9589 19.4713 17.5355 19.4713C17.112 19.4713 16.7789 19.0813 16.426 18.6694C16.0548 18.2369 15.6723 17.7881 15.1712 17.7881C14.6715 17.7881 14.2876 18.2356 13.9163 18.6694C13.5635 19.0813 13.2303 19.4713 12.8069 19.4713C12.3834 19.4713 12.0503 19.0813 11.6974 18.6694C11.3262 18.2369 10.9437 17.7881 10.4426 17.7881C9.94292 17.7881 9.55898 18.2356 9.18775 18.6694C8.83488 19.0813 8.50176 19.4713 8.0783 19.4713C7.65485 19.4713 7.32173 19.0813 6.96885 18.6694C6.59762 18.2369 6.2151 17.7881 5.71402 17.7881C5.21434 17.7881 4.83041 18.2356 4.45918 18.6694C4.1063 19.0813 3.77318 19.4713 3.34973 19.4713C2.92627 19.4713 2.59315 19.0813 2.24027 18.6694C2.00737 18.3984 1.77024 18.1206 1.50205 17.9523V14.9404C1.70531 15.0923 1.89728 15.3126 2.09489 15.5425C2.46612 15.9763 2.84864 16.4238 3.34973 16.4238C3.8494 16.4238 4.23333 15.9763 4.60456 15.5425C4.95744 15.1306 5.29056 14.7406 5.71402 14.7406C6.13747 14.7406 6.47059 15.1306 6.82347 15.5425C7.19469 15.9749 7.57722 16.4238 8.0783 16.4238C8.57798 16.4238 8.96191 15.9763 9.33314 15.5425C9.68602 15.1306 10.0191 14.7406 10.4426 14.7406C10.866 14.7406 11.1992 15.1306 11.552 15.5425C11.9233 15.9749 12.3058 16.4238 12.8069 16.4238C13.3066 16.4238 13.6905 15.9763 14.0617 15.5425C14.4146 15.1306 14.7477 14.7406 15.1712 14.7406C15.5946 14.7406 15.9277 15.1306 16.2806 15.5425C16.6518 15.9749 17.0344 16.4238 17.5355 16.4238C18.0351 16.4238 18.4191 15.9763 18.7903 15.5425C19.1432 15.1306 19.4763 14.7406 19.8997 14.7406C20.3232 14.7406 20.6563 15.1306 21.0092 15.5425C21.3804 15.9749 21.7629 16.4238 22.264 16.4238C22.7637 16.4238 23.1476 15.9763 23.5189 15.5425C23.7165 15.3126 23.907 15.0923 24.1117 14.9404V17.9523ZM24.1117 13.8471C23.8435 14.0167 23.6064 14.2932 23.3735 14.5641C23.0206 14.976 22.6875 15.366 22.264 15.366C21.8406 15.366 21.5075 14.976 21.1546 14.5641C20.7834 14.1317 20.4008 13.6828 19.8997 13.6828C19.4001 13.6828 19.0161 14.1303 18.6449 14.5641C18.292 14.976 17.9589 15.366 17.5355 15.366C17.112 15.366 16.7789 14.976 16.426 14.5641C16.0548 14.1317 15.6723 13.6828 15.1712 13.6828C14.6715 13.6828 14.2876 14.1303 13.9163 14.5641C13.5635 14.976 13.2303 15.366 12.8069 15.366C12.3834 15.366 12.0503 14.976 11.6974 14.5641C11.3262 14.1317 10.9437 13.6828 10.4426 13.6828C9.94292 13.6828 9.55898 14.1303 9.18775 14.5641C8.83488 14.976 8.50176 15.366 8.0783 15.366C7.65485 15.366 7.32173 14.976 6.96885 14.5641C6.59762 14.1317 6.2151 13.6828 5.71402 13.6828C5.21434 13.6828 4.83041 14.1303 4.45918 14.5641C4.1063 14.976 3.77318 15.366 3.34973 15.366C2.92627 15.366 2.59315 14.976 2.24027 14.5641C2.00737 14.2932 1.77024 14.0154 1.50205 13.8471V10.8338C1.70531 10.9857 1.89728 11.206 2.09489 11.4359C2.46612 11.8697 2.84864 12.3172 3.34973 12.3172C3.8494 12.3172 4.23333 11.8697 4.60456 11.4359C4.95744 11.024 5.29056 10.634 5.71402 10.634C6.13747 10.634 6.47059 11.024 6.82347 11.4359C7.19469 11.8683 7.57722 12.3172 8.0783 12.3172C8.57798 12.3172 8.96191 11.8697 9.33314 11.4359C9.68602 11.024 10.0191 10.634 10.4426 10.634C10.866 10.634 11.1992 11.024 11.552 11.4359C11.9233 11.8683 12.3058 12.3172 12.8069 12.3172C13.3066 12.3172 13.6905 11.8697 14.0617 11.4359C14.4146 11.024 14.7477 10.634 15.1712 10.634C15.5946 10.634 15.9277 11.024 16.2806 11.4359C16.6518 11.8683 17.0344 12.3172 17.5355 12.3172C18.0351 12.3172 18.4191 11.8697 18.7903 11.4359C19.1432 11.024 19.4763 10.634 19.8997 10.634C20.3232 10.634 20.6563 11.024 21.0092 11.4359C21.3804 11.8683 21.7629 12.3172 22.264 12.3172C22.7637 12.3172 23.1476 11.8697 23.5189 11.4359C23.7165 11.206 23.907 10.9857 24.1117 10.8338V13.8471ZM24.1117 9.74179C23.8435 9.91147 23.6064 10.1879 23.3735 10.4588C23.0206 10.8707 22.6875 11.2607 22.264 11.2607C21.8406 11.2607 21.5075 10.8707 21.1546 10.4588C20.7834 10.0264 20.4008 9.57758 19.8997 9.57758C19.4001 9.57758 19.0161 10.0251 18.6449 10.4588C18.292 10.8707 17.9589 11.2607 17.5355 11.2607C17.112 11.2607 16.7789 10.8707 16.426 10.4588C16.0548 10.0264 15.6723 9.57758 15.1712 9.57758C14.6715 9.57758 14.2876 10.0251 13.9163 10.4588C13.5635 10.8707 13.2303 11.2607 12.8069 11.2607C12.3834 11.2607 12.0503 10.8707 11.6974 10.4588C11.3262 10.0264 10.9437 9.57758 10.4426 9.57758C9.94292 9.57758 9.55898 10.0251 9.18775 10.4588C8.83488 10.8707 8.50176 11.2607 8.0783 11.2607C7.65485 11.2607 7.32173 10.8707 6.96885 10.4588C6.59762 10.0264 6.2151 9.57758 5.71402 9.57758C5.21434 9.57758 4.83041 10.0251 4.45918 10.4588C4.1063 10.8707 3.77318 11.2607 3.34973 11.2607C2.92627 11.2607 2.59315 10.8707 2.24027 10.4588C2.00737 10.1879 1.77024 9.91011 1.50205 9.74179V6.72853C1.70531 6.88042 1.89728 7.10074 2.09489 7.33063C2.46612 7.76442 2.84864 8.21189 3.34973 8.21189C3.8494 8.21189 4.23333 7.76442 4.60456 7.33063C4.95744 6.91874 5.29056 6.52874 5.71402 6.52874C6.13747 6.52874 6.47059 6.91874 6.82347 7.33063C7.19469 7.76442 7.57722 8.21189 8.0783 8.21189C8.57798 8.21189 8.96191 7.76442 9.33314 7.33063C9.68602 6.91874 10.0191 6.52874 10.4426 6.52874C10.866 6.52874 11.1992 6.91874 11.552 7.33063C11.9233 7.76442 12.3058 8.21189 12.8069 8.21189C13.3066 8.21189 13.6905 7.76442 14.0617 7.33063C14.4146 6.91874 14.7477 6.52874 15.1712 6.52874C15.5946 6.52874 15.9277 6.91874 16.2806 7.33063C16.6518 7.76305 17.0344 8.21189 17.5355 8.21189C18.0351 8.21189 18.4191 7.76442 18.7903 7.33063C19.1432 6.91874 19.4763 6.52874 19.8997 6.52874C20.3232 6.52874 20.6563 6.91874 21.0092 7.33063C21.3804 7.76305 21.7629 8.21189 22.264 8.21189C22.7637 8.21189 23.1476 7.76442 23.5189 7.33063C23.7165 7.10074 23.907 6.88042 24.1117 6.72853V9.74179ZM24.1117 5.63653C23.8435 5.80621 23.6064 6.08263 23.3735 6.35358C23.0206 6.76547 22.6875 7.15547 22.264 7.15547C21.8406 7.15547 21.5075 6.76547 21.1546 6.35358C20.7834 5.92116 20.4008 5.47232 19.8997 5.47232C19.4001 5.47232 19.0161 5.91979 18.6449 6.35358C18.292 6.76547 17.9589 7.15547 17.5355 7.15547C17.112 7.15547 16.7789 6.76547 16.426 6.35358C16.0548 5.92116 15.6723 5.47232 15.1712 5.47232C14.6715 5.47232 14.2876 5.91979 13.9163 6.35358C13.5635 6.76547 13.2303 7.15547 12.8069 7.15547C12.3834 7.15547 12.0503 6.76547 11.6974 6.35358C11.3262 5.92116 10.9437 5.47232 10.4426 5.47232C9.94292 5.47232 9.55898 5.91979 9.18775 6.35358C8.83488 6.76547 8.50176 7.15547 8.0783 7.15547C7.65485 7.15547 7.32173 6.76547 6.96885 6.35358C6.59762 5.92116 6.2151 5.47232 5.71402 5.47232C5.21434 5.47232 4.83041 5.91979 4.45918 6.35358C4.1063 6.76547 3.77318 7.15547 3.34973 7.15547C2.92627 7.15547 2.59315 6.76547 2.24027 6.35358C2.00737 6.08263 1.77024 5.80484 1.50205 5.63653V1.91579L2.33908 1.09474L3.8734 2.73684L5.37102 1.09474L6.86017 2.73684L8.34649 1.09474L9.88222 2.73684L11.3234 1.09474L12.8111 2.73684L14.2989 1.09474L15.788 2.73684L17.2757 1.09474L18.7649 2.73684L20.2526 1.09474L21.7418 2.73684L23.2281 1.09474L24.1117 1.91579V5.63653Z" fill="black"/>
</svg>
