<svg width="24" height="26" viewBox="0 0 24 26" fill="none" xmlns="http://www.w3.org/2000/svg">
<path d="M23.9972 8.89337C23.9238 4.15316 20.0835 0.298316 15.248 0.0177895V0C15.248 0 15.0771 0 14.6832 0H12.5598C7.64374 0 2.5258 0 2.5258 0C1.13089 0 0 0 0 0C0 0 0 1.22474 0 2.73684V23.2632C0 24.7753 1.13089 26 2.5258 26H21.4742C22.8691 26 24 24.7753 24 23.2632C24 23.2632 24 13.962 24 8.89474L23.9972 8.89337ZM15.0799 0.821053C15.1576 0.998947 15.2324 1.17821 15.3002 1.35611C12.557 4.01358 4.52074 11.804 0.847109 15.3646V8.59095C3.33478 6.17979 7.54774 2.09642 8.86358 0.821053H15.0799ZM3.24725 0.821053C3.24725 0.821053 5.12783 0.821053 7.66492 0.821053C6.09918 2.33863 3.03265 5.31221 0.847109 7.42916V3.49358C0.847109 2.09368 0.847109 0.821053 0.847109 0.821053C0.847109 0.821053 1.95823 0.821053 3.24725 0.821053ZM0.848521 23.2974C0.848521 23.2864 0.847109 23.2755 0.847109 23.2632V16.5251C4.02094 13.4461 12.3283 5.29853 15.5684 2.15253C16.3506 4.75116 16.1402 7.24853 15.6899 8.91253L0.848521 23.2974ZM23.1543 23.2632C23.1543 24.5358 22.2055 25.1789 21.6013 25.1789H16.4777C18.0801 23.6258 21.0309 20.7658 23.1543 18.7077C23.1543 21.3022 23.1543 23.2632 23.1543 23.2632ZM23.1543 17.5473L15.279 25.1789H8.29037C10.5281 23.0114 19.2745 14.534 23.1543 10.7736V17.5473ZM23.1543 9.61179C19.1658 13.4789 7.1623 25.1133 7.1623 25.1133L7.23148 25.1803H2.54133C2.08389 25.1803 1.41326 24.9121 1.06877 24.2457C2.32108 23.0319 10.7484 14.8638 16.9535 8.84958C19.8661 7.80274 21.83 8.19547 23.1543 8.684V9.61179ZM16.6598 8.21053C17.1892 6.63821 17.0565 3.77821 15.8127 0.821053C19.4426 1.47516 22.8493 4.26811 23.1543 7.93684C22.0389 7.44558 19.7955 6.96389 16.6598 8.21053Z" fill="black"/>
</svg>
