<svg width="127" height="54" viewBox="0 0 127 54" fill="none" xmlns="http://www.w3.org/2000/svg">
<path fill-rule="evenodd" clip-rule="evenodd" d="M37.3333 12.4444C37.3333 8.89216 38.5541 5.93575 40.9956 3.5752C43.4607 1.19173 46.6489 0 50.56 0C54.4474 0 57.6119 1.13444 60.0533 3.40332C62.5422 5.67219 63.7867 8.6859 63.7867 12.4444C63.7867 16.0655 62.5304 19.0448 60.0178 21.3824C57.5289 23.7201 54.3763 24.8889 50.56 24.8889C46.6963 24.8889 43.52 23.7545 41.0311 21.4856C38.5659 19.2167 37.3333 16.203 37.3333 12.4444ZM43.3778 12.4444C43.3778 14.4841 44.077 16.2144 45.4756 17.6354C46.8504 19.0334 48.5452 19.7324 50.56 19.7324C52.8356 19.7324 54.6015 19.0563 55.8578 17.7041C57.1141 16.3061 57.7422 14.5529 57.7422 12.4444C57.7422 10.2672 57.0548 8.51402 55.68 7.18478C54.2815 5.83262 52.5748 5.15654 50.56 5.15654C48.4741 5.15654 46.7556 5.83262 45.4044 7.18478C44.0533 8.53693 43.3778 10.2902 43.3778 12.4444ZM65.7778 12.4444C65.7778 8.89216 66.9985 5.93575 69.44 3.5752C71.9052 1.19173 75.0933 0 79.0044 0C82.8919 0 86.0563 1.13444 88.4978 3.40332C90.9867 5.67219 92.2311 8.6859 92.2311 12.4444C92.2311 16.0655 90.9748 19.0448 88.4622 21.3824C85.9733 23.7201 82.8207 24.8889 79.0044 24.8889C75.1407 24.8889 71.9644 23.7545 69.4756 21.4856C67.0104 19.2167 65.7778 16.203 65.7778 12.4444ZM71.8222 12.4444C71.8222 14.4841 72.5215 16.2144 73.92 17.6354C75.2948 19.0334 76.9896 19.7324 79.0044 19.7324C81.28 19.7324 83.0459 19.0563 84.3022 17.7041C85.5585 16.3061 86.1867 14.5529 86.1867 12.4444C86.1867 10.2672 85.4993 8.51402 84.1244 7.18478C82.7259 5.83262 81.0193 5.15654 79.0044 5.15654C76.9185 5.15654 75.2 5.83262 73.8489 7.18478C72.4978 8.53693 71.8222 10.2902 71.8222 12.4444ZM101.6 24.4764V16.0541H103.698L109.742 24.4764H116.64L109.387 14.9884C112.184 13.6591 113.582 11.3444 113.582 8.04423C113.582 2.91061 110.513 0.343804 104.373 0.343804C103.354 0.343804 102.027 0.355263 100.391 0.378181C98.7555 0.401099 97.2621 0.412557 95.911 0.412557V24.4764H101.6ZM103.769 5.53472C103.958 5.5118 104.065 5.50034 104.089 5.50034C106.388 5.50034 107.538 6.37122 107.538 8.11299C107.538 9.96934 106.246 10.8975 103.662 10.8975H101.6V5.5691H102.88C103.283 5.54618 103.579 5.53472 103.769 5.53472ZM5.68889 24.4764H0V0.412557H14.4V5.5691H5.68889V10.6569H13.3333V15.8134H5.68889V24.4764ZM34.85 24.4764H19.0278V0.412557H24.7167V19.3199H34.85V24.4764Z" fill="url(#paint0_linear)"/>
<path d="M0.608598 53.9291H0V29.1064H0.501198C1.57519 29.1064 2.76852 29.0946 4.08119 29.0709C4.58239 29.0709 5.13132 29.0709 5.72798 29.0709C6.34851 29.0473 6.82584 29.0355 7.15998 29.0355C7.49411 29.0118 7.74471 29 7.91177 29C12.6135 29 16.1338 30.1584 18.4727 32.4752C20.8117 34.792 21.9811 37.7352 21.9811 41.305C21.9811 44.9693 20.7281 48.0071 18.2221 50.4184C15.74 52.8061 12.2078 54 7.62537 54C6.69458 54 5.65638 53.9882 4.51079 53.9645C3.36519 53.9409 2.06446 53.9291 0.608598 53.9291ZM7.84018 34.3191C6.90938 34.3191 6.20531 34.3546 5.72798 34.4255V48.6099C6.39625 48.6572 7.08838 48.6809 7.80438 48.6809C10.3342 48.6809 12.3152 48.0307 13.7472 46.7305C15.1792 45.4303 15.8951 43.6217 15.8951 41.305C15.8951 39.1064 15.1672 37.3924 13.7114 36.1631C12.2555 34.9338 10.2984 34.3191 7.84018 34.3191Z" fill="black"/>
<path d="M39.7378 53.9291H24.5228V29.1064H39.3798V34.4255H30.2508V38.7872H38.3058V44.1064H30.2508V48.6099H39.7378V53.9291Z" fill="black"/>
<path d="M47.6566 53.9291H41.8928L52.3105 29.1064H57.4299L67.8477 53.9291H61.7259L59.6495 48.7163H49.7329L47.6566 53.9291ZM57.5015 43.3972L54.7091 36.3759L51.8809 43.3972H57.5015Z" fill="black"/>
<path d="M85.6511 53.9291H69.7202V29.1064H75.4482V48.6099H85.6511V53.9291Z" fill="black"/>
<path d="M102.989 53.9291H87.7742V29.1064H102.631V34.4255H93.5022V38.7872H101.557V44.1064H93.5022V48.6099H102.989V53.9291Z" fill="black"/>
<path d="M111.857 45.2411V53.9291H106.129V29.1064C107.489 29.1064 108.993 29.0946 110.639 29.0709C112.286 29.0473 113.623 29.0355 114.649 29.0355C120.83 29.0355 123.921 31.6832 123.921 36.9787C123.921 40.383 122.513 42.7707 119.697 44.1418L127 53.9291H120.055L113.969 45.2411H111.857ZM114.363 34.3546C114.339 34.3546 114.231 34.3664 114.04 34.3901C113.85 34.3901 113.551 34.4019 113.145 34.4255C112.74 34.4255 112.31 34.4255 111.857 34.4255V39.922H113.933C116.535 39.922 117.835 38.9645 117.835 37.0496C117.835 35.253 116.678 34.3546 114.363 34.3546Z" fill="black"/>
<defs>
<linearGradient id="paint0_linear" x1="58.32" y1="0" x2="58.32" y2="24.8889" gradientUnits="userSpaceOnUse">
<stop stop-color="#EA4C42"/>
<stop offset="1" stop-color="#AE1111"/>
</linearGradient>
</defs>
</svg>
