<svg width="104" height="23" viewBox="0 0 104 23" fill="none" xmlns="http://www.w3.org/2000/svg">
<path fill-rule="evenodd" clip-rule="evenodd" d="M33.2878 11.0959C33.2878 7.92855 34.3762 5.29251 36.5531 3.18777C38.7512 1.06259 41.5938 0 45.0811 0C48.5472 0 51.3688 1.0115 53.5457 3.03451C55.7648 5.05751 56.8744 7.74464 56.8744 11.0959C56.8744 14.3245 55.7543 16.981 53.514 19.0653C51.2948 21.1496 48.4838 22.1918 45.0811 22.1918C41.6361 22.1918 38.804 21.1803 36.5848 19.1572C34.3868 17.1342 33.2878 14.4471 33.2878 11.0959ZM38.6772 11.0959C38.6772 12.9145 39.3007 14.4573 40.5476 15.7243C41.7735 16.9708 43.2846 17.594 45.0811 17.594C47.1101 17.594 48.6846 16.9912 49.8048 15.7856C50.9249 14.5391 51.485 12.9758 51.485 11.0959C51.485 9.15461 50.8721 7.59138 49.6463 6.40618C48.3993 5.20055 46.8776 4.59774 45.0811 4.59774C43.2212 4.59774 41.6889 5.20055 40.4842 6.40618C39.2795 7.61181 38.6772 9.17505 38.6772 11.0959ZM58.6497 11.0959C58.6497 7.92855 59.7382 5.29251 61.9151 3.18777C64.1131 1.06259 66.9558 0 70.4431 0C73.9092 0 76.7307 1.0115 78.9076 3.03451C81.1268 5.05751 82.2364 7.74464 82.2364 11.0959C82.2364 14.3245 81.1162 16.981 78.8759 19.0653C76.6568 21.1496 73.8458 22.1918 70.4431 22.1918C66.9981 22.1918 64.166 21.1803 61.9468 19.1572C59.7488 17.1342 58.6497 14.4471 58.6497 11.0959ZM64.0392 11.0959C64.0392 12.9145 64.6626 14.4573 65.9096 15.7243C67.1354 16.9708 68.6466 17.594 70.4431 17.594C72.472 17.594 74.0466 16.9912 75.1667 15.7856C76.2869 14.5391 76.847 12.9758 76.847 11.0959C76.847 9.15461 76.2341 7.59138 75.0082 6.40618C73.7613 5.20055 72.2395 4.59774 70.4431 4.59774C68.5832 4.59774 67.0509 5.20055 65.8462 6.40618C64.6415 7.61181 64.0392 9.17505 64.0392 11.0959ZM90.5898 21.8243V14.3146H92.4603L97.8497 21.8243H104L97.5327 13.3644C100.027 12.1792 101.274 10.1154 101.274 7.17281C101.274 2.5955 98.5366 0.306851 93.0626 0.306851C92.1538 0.306851 90.9703 0.317068 89.512 0.337502C88.0536 0.357936 86.7221 0.368153 85.5174 0.368153V21.8243H90.5898ZM92.5237 4.93524C92.6928 4.91481 92.7879 4.90459 92.809 4.90459C94.8591 4.90459 95.8842 5.6811 95.8842 7.23411C95.8842 8.8893 94.7323 9.71689 92.4286 9.71689H90.5898V4.96589H91.7311C92.0904 4.94546 92.3546 4.93524 92.5237 4.93524ZM5.0724 21.8243H0V0.368153H12.8395V4.96589H5.0724V9.50233H11.8884V14.1001H5.0724V21.8243ZM31.0734 21.8243H16.9658V0.368153H22.0382V17.2265H31.0734V21.8243Z" fill="url(#paint0_linear)"/>
<defs>
<linearGradient id="paint0_linear" x1="52" y1="0" x2="52" y2="22.1918" gradientUnits="userSpaceOnUse">
<stop stop-color="#EA4C42"/>
<stop offset="1" stop-color="#AE1111"/>
</linearGradient>
</defs>
</svg>
