<svg width="110" height="23" viewBox="0 0 110 23" fill="none" xmlns="http://www.w3.org/2000/svg">
<path d="M0.527132 22.0387H0V0.19469H0.434109C1.36434 0.19469 2.39793 0.184289 3.53489 0.163486C3.969 0.163486 4.44445 0.163486 4.96124 0.163486C5.49871 0.142682 5.91215 0.13228 6.20155 0.13228C6.49096 0.111476 6.70801 0.101074 6.85272 0.101074C10.9251 0.101074 13.9742 1.12046 16 3.15923C18.0259 5.198 19.0388 7.78807 19.0388 10.9294C19.0388 14.154 17.9535 16.8273 15.783 18.9493C13.6331 21.0505 10.5737 22.1011 6.60466 22.1011C5.79845 22.1011 4.89923 22.0907 3.90698 22.0699C2.91473 22.0491 1.78812 22.0387 0.527132 22.0387ZM6.7907 4.78192C5.9845 4.78192 5.37468 4.81313 4.96124 4.87554V17.3578C5.54006 17.3994 6.13954 17.4202 6.7597 17.4202C8.95091 17.4202 10.6667 16.8481 11.907 15.7039C13.1473 14.5597 13.7675 12.9682 13.7675 10.9294C13.7675 8.99469 13.137 7.48642 11.876 6.40462C10.615 5.32282 8.9199 4.78192 6.7907 4.78192Z" fill="black"/>
<path d="M34.4186 22.0387H21.2402V0.19469H34.1085V4.87554H26.2015V8.71384H33.1782V13.3947H26.2015V17.3578H34.4186V22.0387Z" fill="black"/>
<path d="M41.2773 22.0387H36.2851L45.3083 0.19469H49.7425L58.7657 22.0387H53.4634L51.6649 17.4514H43.0758L41.2773 22.0387ZM49.8045 12.7706L47.3859 6.59185L44.9362 12.7706H49.8045Z" fill="black"/>
<path d="M74.186 22.0387H60.3876V0.19469H65.3488V17.3578H74.186V22.0387Z" fill="black"/>
<path d="M89.2032 22.0387H76.0249V0.19469H88.8932V4.87554H80.9862V8.71384H87.9629V13.3947H80.9862V17.3578H89.2032V22.0387Z" fill="black"/>
<path d="M96.8837 14.3933V22.0387H91.9225V0.19469C93.1008 0.19469 94.4031 0.184289 95.8294 0.163486C97.2558 0.142682 98.4134 0.13228 99.3023 0.13228C104.656 0.13228 107.333 2.4623 107.333 7.12235C107.333 10.1181 106.114 12.2193 103.674 13.4259L110 22.0387H103.984L98.7132 14.3933H96.8837ZM99.0543 4.81313C99.0336 4.81313 98.9406 4.82353 98.7752 4.84434C98.6098 4.84434 98.3514 4.85474 98 4.87554C97.6486 4.87554 97.2765 4.87554 96.8837 4.87554V9.71242H98.6822C100.935 9.71242 102.062 8.86987 102.062 7.18476C102.062 5.60367 101.059 4.81313 99.0543 4.81313Z" fill="black"/>
</svg>
