<svg width="57" height="32" viewBox="0 0 57 32" fill="none" xmlns="http://www.w3.org/2000/svg">
<path d="M8.06672 32H0V0H20.4189V6.85714H8.06672V13.6229H18.9064V20.48H8.06672V32Z" fill="url(#paint0_linear)"/>
<path d="M27.358 31.9092H26.5142V0.136169H27.2091C28.6981 0.136169 30.3526 0.12104 32.1726 0.09078C32.8675 0.09078 33.6286 0.09078 34.4558 0.09078C35.3162 0.0605204 35.978 0.04539 36.4413 0.04539C36.9045 0.0151304 37.252 0 37.4836 0C44.0024 0 48.8832 1.48274 52.1261 4.44823C55.3689 7.41371 56.9903 11.1811 56.9903 15.7504C56.9903 20.4407 55.2531 24.3291 51.7786 27.4156C48.3372 30.4719 43.4399 32 37.0865 32C35.796 32 34.3566 31.9849 32.7682 31.9546C31.1799 31.9244 29.3765 31.9092 27.358 31.9092ZM37.3843 6.80851C36.0938 6.80851 35.1176 6.8539 34.4558 6.94468V25.1007C35.3824 25.1612 36.342 25.1915 37.3347 25.1915C40.8423 25.1915 43.5888 24.3593 45.5742 22.695C47.5596 21.0307 48.5523 18.7158 48.5523 15.7504C48.5523 12.9362 47.5431 10.7423 45.5246 9.16879C43.506 7.59527 40.7926 6.80851 37.3843 6.80851Z" fill="black"/>
<defs>
<linearGradient id="paint0_linear" x1="10.2094" y1="0" x2="10.2094" y2="32" gradientUnits="userSpaceOnUse">
<stop stop-color="#EA4C42"/>
<stop offset="1" stop-color="#AE1111"/>
</linearGradient>
</defs>
</svg>
